<?xml version="1.0" standalone="no"?>
<!DOCTYPE svg PUBLIC "-//W3C//DTD SVG 20010904//EN"
 "http://www.w3.org/TR/2001/REC-SVG-20010904/DTD/svg10.dtd">
<svg version="1.0" xmlns="http://www.w3.org/2000/svg"
 width="96.000000pt" height="96.000000pt" viewBox="0 0 96.000000 96.000000"
 preserveAspectRatio="xMidYMid meet">
<metadata>
Created by potrace 1.11, written by Peter Selinger 2001-2013
</metadata>
<g transform="translate(0.000000,96.000000) scale(0.100000,-0.100000)"
fill="#000000" stroke="none">
<path d="M505 921 c-160 -28 -201 -41 -262 -80 -119 -77 -190 -192 -200 -323
-10 -133 33 -244 132 -342 29 -28 57 -61 63 -72 12 -22 17 -24 209 -40 95 -9
188 19 271 80 98 72 154 169 172 297 6 41 22 114 36 163 21 74 23 94 14 117
-15 35 -58 53 -112 45 -40 -5 -46 -3 -85 34 -34 32 -43 48 -43 74 0 63 -43 73
-195 47z m169 -16 c10 -10 13 -26 9 -50 -4 -26 -2 -35 9 -35 7 0 38 -26 68
-57 l55 -58 -50 47 c-94 88 -195 123 -333 116 -99 -5 -173 -32 -217 -78 l-28
-29 52 19 c69 27 80 25 49 -7 -87 -92 6 -165 143 -114 55 21 57 22 57 61 1 30
-5 44 -24 59 -31 25 -30 29 9 36 69 13 132 -36 95 -74 -11 -10 -8 -10 14 -2
53 20 75 -10 42 -57 -18 -26 -17 -26 29 -7 79 33 141 -40 122 -142 l-7 -37
-15 33 c-24 50 -58 71 -114 71 -29 0 -49 5 -52 13 -7 22 -31 -67 -31 -120 -2
-115 108 -172 188 -98 29 26 31 25 40 -25 17 -98 -81 -241 -189 -275 -58 -18
-182 -24 -223 -11 l-23 8 25 25 c24 24 48 78 60 135 5 22 12 28 33 28 21 0 11
8 -44 34 -113 55 -147 105 -65 98 45 -3 86 16 90 43 4 31 -51 111 -86 123 -61
21 -110 -42 -84 -111 12 -32 7 -52 -10 -41 -5 4 -23 27 -39 52 l-29 46 0 -36
c0 -20 -4 -48 -10 -63 -12 -32 3 -66 49 -109 36 -35 39 -68 12 -135 l-18 -44
-55 56 c-168 167 -163 429 10 588 74 68 119 87 272 114 151 28 194 30 214 10z
m-302 -141 c-8 -45 34 -58 68 -22 l20 22 0 -27 c0 -41 -32 -67 -84 -67 -84 0
-116 68 -48 104 40 22 50 20 44 -10z m542 -30 c20 -20 20 -45 -2 -119 l-18
-59 -23 69 c-13 37 -32 77 -42 89 -11 11 -19 23 -19 28 0 15 88 9 104 -8z
m-264 -178 c-6 -8 -10 -25 -8 -38 5 -34 55 -38 80 -6 l18 23 0 -33 c0 -34 -15
-72 -34 -84 -26 -18 -75 -8 -95 18 -38 48 -18 134 31 134 17 0 18 -3 8 -14z
m45 -6 c3 -5 -1 -10 -9 -10 -9 0 -16 5 -16 10 0 6 4 10 9 10 6 0 13 -4 16 -10z
m-389 -362 c7 -44 13 -53 34 -58 23 -5 23 -6 -13 -24 -45 -21 -70 -18 -75 8
-4 21 28 126 38 126 4 0 11 -23 16 -52z"/>
</g>
</svg>
