<?xml version="1.0" standalone="no"?>
<!DOCTYPE svg PUBLIC "-//W3C//DTD SVG 20010904//EN"
 "http://www.w3.org/TR/2001/REC-SVG-20010904/DTD/svg10.dtd">
<svg version="1.0" xmlns="http://www.w3.org/2000/svg"
 width="320.000000pt" height="320.000000pt" viewBox="0 0 320.000000 320.000000"
 preserveAspectRatio="xMidYMid meet">
<metadata>
Created by potrace 1.14, written by Peter Selinger 2001-2017
</metadata>
<g transform="translate(0.000000,320.000000) scale(0.100000,-0.100000)"
fill="#000000" stroke="none">
<path d="M1440 2933 c-298 -52 -529 -217 -646 -460 -36 -76 -64 -175 -64 -230
0 -18 -3 -33 -7 -33 -5 1 -25 27 -45 58 -57 87 -130 175 -161 192 -26 14 -29
14 -43 -5 -24 -31 -13 -212 20 -348 32 -134 104 -341 190 -552 l66 -160 0
-115 c2 -346 98 -616 290 -811 94 -95 174 -146 298 -188 72 -24 89 -25 267
-25 211 0 242 6 390 82 93 48 244 198 298 297 102 186 146 355 154 595 l6 165
49 125 c27 69 58 144 69 166 25 57 124 363 144 449 19 81 31 246 21 299 -5 28
-12 36 -28 36 -28 0 -98 -74 -170 -179 -33 -48 -59 -78 -62 -70 -2 8 -9 45
-16 83 -23 143 -97 275 -219 396 -165 162 -379 242 -648 239 -70 -1 -139 -4
-153 -6z m325 -113 c207 -48 352 -174 435 -379 43 -106 60 -217 60 -400 0
-180 -8 -261 -25 -268 -7 -2 -31 1 -54 7 l-41 11 0 194 c0 116 -4 196 -10 200
-19 12 -247 25 -305 18 l-60 -8 -3 -180 -2 -180 -168 -1 c-174 -1 -424 -24
-551 -50 -54 -11 -77 -12 -85 -4 -7 7 -11 87 -11 248 0 196 3 248 18 301 74
270 229 433 465 490 105 26 230 26 337 1z m64 -1497 c53 -13 138 -45 189 -69
80 -39 93 -48 90 -67 -4 -30 -124 -72 -254 -87 -126 -16 -380 -15 -508 0 -128
15 -250 57 -254 86 -3 18 11 28 80 63 219 108 433 132 657 74z m-375 -338
c138 -128 52 -439 -108 -394 -140 40 -156 331 -23 406 39 22 101 16 131 -12z
m451 -10 c87 -91 86 -278 -1 -355 -28 -24 -44 -30 -81 -30 -41 0 -51 5 -83 39
-47 49 -64 110 -58 200 6 77 37 144 78 167 14 7 45 13 69 14 37 0 49 -5 76
-35z"/>
<path d="M1435 829 c-21 -14 -40 -18 -65 -14 -75 12 -75 11 -75 -15 0 -26 23
-37 80 -39 38 -1 115 47 115 71 0 23 -17 22 -55 -3z"/>
<path d="M1730 868 c-23 -37 -24 -47 -11 -81 33 -85 121 -68 121 23 0 87 -70
124 -110 58z"/>
</g>
</svg>
