<svg xmlns="http://www.w3.org/2000/svg" width="1200" height="900" fill="#d6e1ef" xmlns:v="https://vecta.io/nano"><path d="M536.62 132.224a3.5 3.5 0 0 1 4.949 4.949 3.5 3.5 0 0 1-4.949-4.949zm0 29.698a3.5 3.5 0 0 1 4.949 4.95 3.5 3.5 0 0 1-4.949-4.95zm-14.85-44.548c1.367-1.366 3.583-1.366 4.95 0a3.5 3.5 0 1 1-4.95 0zm0 29.7a3.5 3.5 0 1 1 4.95 4.95c-1.367 1.366-3.583 1.366-4.95 0a3.5 3.5 0 0 1 0-4.95zm0 29.698c1.367-1.366 3.583-1.366 4.95 0a3.5 3.5 0 1 1-4.95 0zm-14.85-74.246a3.5 3.5 0 1 1 4.95 4.95 3.5 3.5 0 1 1-4.95-4.95zm0 29.7a3.5 3.5 0 0 1 4.95 4.949 3.5 3.5 0 0 1-4.95-4.949zm0 29.698a3.5 3.5 0 1 1 4.95 4.95 3.5 3.5 0 1 1-4.95-4.95zm0 29.7a3.5 3.5 0 0 1 4.95 4.949 3.5 3.5 0 0 1-4.95-4.949zm-14.85-74.247c1.367-1.366 3.583-1.366 4.95 0a3.5 3.5 0 1 1-4.95 0zm0 29.7a3.5 3.5 0 0 1 4.95 0c1.366 1.367 1.366 3.583 0 4.95a3.5 3.5 0 1 1-4.95-4.95zm0 29.698c1.367-1.366 3.583-1.366 4.95 0a3.5 3.5 0 1 1-4.95 0zm-14.85-74.246a3.5 3.5 0 0 1 4.949 4.95 3.5 3.5 0 0 1-4.949-4.95zm0 29.7a3.5 3.5 0 0 1 4.949 4.949 3.5 3.5 0 0 1-4.949-4.949zm0 29.698a3.5 3.5 0 0 1 4.949 4.95 3.5 3.5 0 0 1-4.949-4.95zm0 29.7a3.5 3.5 0 0 1 4.949 4.949 3.5 3.5 0 0 1-4.949-4.949zm-14.85-74.247c1.367-1.366 3.583-1.366 4.95 0a3.5 3.5 0 1 1-4.95 4.95c-1.366-1.367-1.366-3.583 0-4.95zm0 29.7a3.5 3.5 0 1 1 4.95 4.95c-1.367 1.366-3.583 1.366-4.95 0a3.5 3.5 0 0 1 0-4.95zm0 29.698c1.367-1.366 3.583-1.366 4.95 0a3.5 3.5 0 1 1-4.95 4.95c-1.366-1.367-1.366-3.583 0-4.95zm-14.753-14.85a3.5 3.5 0 0 1 4.949 4.95 3.5 3.5 0 0 1-4.949-4.95zm0-29.698a3.5 3.5 0 0 1 4.949 4.949 3.5 3.5 0 0 1-4.949-4.949zm-14.85-14.85c1.367-1.366 3.583-1.366 4.95 0a3.5 3.5 0 1 1-4.95 0zm0 29.7a3.5 3.5 0 1 1 4.95 4.95c-1.367 1.366-3.583 1.366-4.95 0a3.5 3.5 0 0 1 0-4.95zm0 29.698c1.367-1.366 3.583-1.366 4.95 0a3.5 3.5 0 1 1-4.95 0zm-14.85-74.246a3.5 3.5 0 1 1 4.95 4.95 3.5 3.5 0 1 1-4.95-4.95zm0 29.7a3.5 3.5 0 0 1 4.95 4.949 3.5 3.5 0 0 1-4.95-4.949zm0 29.698a3.5 3.5 0 1 1 4.95 4.95 3.5 3.5 0 1 1-4.95-4.95zm0 29.7a3.5 3.5 0 0 1 4.95 4.949 3.5 3.5 0 0 1-4.95-4.949zm-14.85-74.247c1.367-1.366 3.583-1.366 4.95 0a3.5 3.5 0 1 1-4.95 0zm0 29.7a3.5 3.5 0 0 1 4.95 0c1.366 1.367 1.366 3.583 0 4.95a3.5 3.5 0 1 1-4.95-4.95zm0 29.698c1.367-1.366 3.583-1.366 4.95 0a3.5 3.5 0 1 1-4.95 0zm-14.85-74.246a3.5 3.5 0 0 1 4.949 4.95 3.5 3.5 0 0 1-4.949-4.95zm0 29.7a3.5 3.5 0 0 1 4.949 4.949 3.5 3.5 0 0 1-4.949-4.949zm0 29.698a3.5 3.5 0 0 1 4.949 4.95 3.5 3.5 0 0 1-4.949-4.95zm0 29.7a3.5 3.5 0 0 1 4.949 4.949 3.5 3.5 0 0 1-4.949-4.949zm-14.85-74.247c1.367-1.366 3.583-1.366 4.95 0a3.5 3.5 0 1 1-4.95 4.95c-1.366-1.367-1.366-3.583 0-4.95zm0 29.7a3.5 3.5 0 1 1 4.95 4.95c-1.367 1.366-3.583 1.366-4.95 0a3.5 3.5 0 0 1 0-4.95zm0 29.698c1.367-1.366 3.583-1.366 4.95 0a3.5 3.5 0 1 1-4.95 4.95c-1.366-1.367-1.366-3.583 0-4.95zm-14.85-14.85a3.5 3.5 0 1 1 4.95 4.95 3.5 3.5 0 1 1-4.95-4.95zm0-29.698a3.5 3.5 0 0 1 4.95 4.949 3.5 3.5 0 0 1-4.95-4.949zm634.805 89.78c1.366 1.367 1.366 3.583 0 4.95a3.5 3.5 0 1 1 0-4.95zm-14.85-14.85a3.5 3.5 0 0 1-4.949 4.949 3.5 3.5 0 0 1 4.949-4.949zm44.548 14.85c1.37 1.367 1.37 3.583 0 4.95a3.5 3.5 0 0 1-4.95 0c-1.37-1.367-1.37-3.583 0-4.95a3.5 3.5 0 0 1 4.95 0zm-14.85-14.85c1.37 1.367 1.37 3.583 0 4.95a3.5 3.5 0 0 1-4.95 0c-1.37-1.366-1.37-3.582 0-4.95a3.5 3.5 0 0 1 4.95 0zm-14.848-14.85c1.366 1.367 1.366 3.583 0 4.95a3.5 3.5 0 1 1-4.95-4.95c1.367-1.366 3.583-1.366 4.95 0zm-14.85-14.85a3.5 3.5 0 0 1-4.949 4.95 3.5 3.5 0 0 1 4.949-4.95zm59.398 29.7c1.37 1.367 1.37 3.583 0 4.95a3.5 3.5 0 0 1-4.95 0c-1.37-1.366-1.37-3.582 0-4.95a3.5 3.5 0 0 1 4.95 0zm-14.85-14.85c1.37 1.367 1.37 3.583 0 4.95a3.5 3.5 0 0 1-4.95 0c-1.37-1.367-1.37-3.583 0-4.95a3.5 3.5 0 0 1 4.95 0zm-14.85-14.85c1.37 1.367 1.37 3.583 0 4.95a3.5 3.5 0 0 1-4.95 0c-1.37-1.367-1.37-3.583 0-4.95a3.5 3.5 0 0 1 4.95 0zm-14.848-14.85c1.366 1.367 1.366 3.583 0 4.95a3.5 3.5 0 1 1 0-4.95zm89.098 59.397c1.36 1.367 1.36 3.583 0 4.95a3.5 3.5 0 0 1-4.95 0c-1.37-1.367-1.37-3.583 0-4.95a3.5 3.5 0 0 1 4.95 0zm-14.85-14.85c1.36 1.367 1.36 3.583 0 4.95a3.5 3.5 0 0 1-4.95 0c-1.37-1.366-1.37-3.582 0-4.95a3.5 3.5 0 0 1 4.95 0zm-14.85-14.85c1.37 1.367 1.37 3.583 0 4.95a3.5 3.5 0 0 1-4.95 0c-1.37-1.367-1.37-3.583 0-4.95a3.5 3.5 0 0 1 4.95 0zm-14.85-14.85c1.37 1.367 1.37 3.583 0 4.95a3.5 3.5 0 0 1-4.95 0c-1.37-1.367-1.37-3.583 0-4.95a3.5 3.5 0 0 1 4.95 0zm-14.85-14.85c1.37 1.367 1.37 3.583 0 4.95a3.5 3.5 0 0 1-4.95 0c-1.37-1.367-1.37-3.583 0-4.95a3.5 3.5 0 0 1 4.95 0zm-14.85-14.85c1.37 1.367 1.37 3.583 0 4.95a3.5 3.5 0 0 1-4.95 0c-1.37-1.367-1.37-3.583 0-4.95a3.5 3.5 0 0 1 4.95 0zm-14.848-14.85a3.5 3.5 0 0 1-4.95 4.949 3.5 3.5 0 0 1 4.95-4.949zm-14.85-14.85a3.5 3.5 0 0 1-4.949 4.95 3.5 3.5 0 0 1 4.949-4.95zm133.648 103.945c1.36 1.367 1.36 3.583 0 4.95a3.5 3.5 0 0 1-4.95 0c-1.37-1.367-1.37-3.583 0-4.95a3.5 3.5 0 0 1 4.95 0zm-14.85-14.85c1.36 1.367 1.36 3.583 0 4.95a3.5 3.5 0 0 1-4.95 0c-1.37-1.366-1.37-3.582 0-4.95a3.5 3.5 0 0 1 4.95 0zm-14.85-14.85c1.36 1.367 1.36 3.583 0 4.95a3.5 3.5 0 0 1-4.95 0c-1.37-1.367-1.37-3.583 0-4.95 1.36-1.366 3.58-1.366 4.95 0zm-14.85-14.85c1.36 1.367 1.36 3.583 0 4.95a3.5 3.5 0 0 1-4.95 0c-1.37-1.367-1.37-3.583 0-4.95a3.5 3.5 0 0 1 4.95 0zm-44.55-44.547c1.37 1.366 1.37 3.582 0 4.95a3.5 3.5 0 0 1-4.95 0c-1.37-1.367-1.37-3.583 0-4.95a3.5 3.5 0 0 1 4.95 0zm-14.85-14.85c1.37 1.367 1.37 3.583 0 4.95a3.5 3.5 0 0 1-4.95 0c-1.37-1.367-1.37-3.583 0-4.95a3.5 3.5 0 0 1 4.95 0zm-14.848-14.85c1.366 1.367 1.366 3.583 0 4.95a3.5 3.5 0 1 1 0-4.95zm-14.85-14.85a3.5 3.5 0 0 1-4.949 4.95 3.5 3.5 0 0 1 4.949-4.95zm148.488 118.794c1.37 1.367 1.37 3.583 0 4.95a3.5 3.5 0 0 1-4.95 0c-1.36-1.366-1.36-3.582 0-4.95a3.5 3.5 0 0 1 4.95 0zm-14.84-14.85c1.36 1.367 1.36 3.583 0 4.95a3.5 3.5 0 0 1-4.95 0c-1.37-1.367-1.37-3.583 0-4.95 1.36-1.366 3.58-1.366 4.95 0zm-14.85-14.85c1.36 1.367 1.36 3.583 0 4.95a3.5 3.5 0 0 1-4.95 0c-1.37-1.367-1.37-3.583 0-4.95a3.5 3.5 0 0 1 4.95 0zm-14.85-14.85c1.36 1.367 1.36 3.583 0 4.95a3.5 3.5 0 0 1-4.95 0c-1.37-1.367-1.37-3.583 0-4.95a3.5 3.5 0 0 1 4.95 0zm-44.55-44.548c1.37 1.367 1.37 3.583 0 4.95a3.5 3.5 0 0 1-4.95 0c-1.37-1.367-1.37-3.583 0-4.95a3.5 3.5 0 0 1 4.95 0zm-14.85-14.85c1.37 1.367 1.37 3.583 0 4.95a3.5 3.5 0 0 1-4.95 0c-1.37-1.367-1.37-3.583 0-4.95a3.5 3.5 0 0 1 4.95 0zm-14.85-14.85c1.37 1.367 1.37 3.583 0 4.95a3.5 3.5 0 0 1-4.95 0c-1.37-1.367-1.37-3.583 0-4.95a3.5 3.5 0 0 1 4.95 0zm-14.848-14.85a3.5 3.5 0 1 1-4.95 4.95 3.5 3.5 0 1 1 4.95-4.95zM1126.96 177.45c1.37 1.367 1.37 3.583 0 4.95a3.5 3.5 0 0 1-4.95 0c-1.36-1.367-1.36-3.583 0-4.95a3.5 3.5 0 0 1 4.95 0zm-14.84-14.85c1.36 1.367 1.36 3.583 0 4.95a3.5 3.5 0 0 1-4.95 0c-1.37-1.367-1.37-3.583 0-4.95a3.5 3.5 0 0 1 4.95 0zm-14.85-14.85c1.36 1.367 1.36 3.583 0 4.95-1.37 1.366-3.6 1.366-4.95 0-1.37-1.367-1.37-3.583 0-4.95a3.5 3.5 0 0 1 4.95 0zm-14.85-14.85c1.36 1.366 1.36 3.582 0 4.95a3.5 3.5 0 0 1-4.95 0c-1.37-1.367-1.37-3.583 0-4.95a3.5 3.5 0 0 1 4.95 0zm-14.85-14.85c1.36 1.367 1.36 3.583 0 4.95a3.5 3.5 0 0 1-4.95 0c-1.37-1.367-1.37-3.583 0-4.95a3.5 3.5 0 0 1 4.95 0zm-14.85-14.85c1.37 1.367 1.37 3.583 0 4.95a3.5 3.5 0 0 1-4.95 0c-1.37-1.367-1.37-3.583 0-4.95a3.5 3.5 0 0 1 4.95 0zm-14.85-14.85c1.37 1.367 1.37 3.583 0 4.95a3.5 3.5 0 0 1-4.95 0c-1.37-1.367-1.37-3.583 0-4.95a3.5 3.5 0 0 1 4.95 0zm-14.85-14.85c1.37 1.367 1.37 3.583 0 4.95a3.5 3.5 0 0 1-4.95 0c-1.37-1.367-1.37-3.583 0-4.95a3.5 3.5 0 0 1 4.95 0zm89.1 59.397c1.36 1.366 1.36 3.582 0 4.95a3.5 3.5 0 0 1-4.95 0c-1.37-1.367-1.37-3.583 0-4.95a3.5 3.5 0 0 1 4.95 0zm-14.85-14.85c1.36 1.367 1.36 3.583 0 4.95a3.5 3.5 0 0 1-4.95 0c-1.37-1.367-1.37-3.583 0-4.95a3.5 3.5 0 0 1 4.95 0zm-14.85-14.85c1.36 1.367 1.36 3.583 0 4.95a3.5 3.5 0 0 1-4.95 0c-1.37-1.367-1.37-3.583 0-4.95a3.5 3.5 0 0 1 4.95 0zm-14.85-14.85c1.36 1.367 1.36 3.583 0 4.95-1.37 1.367-3.6 1.367-4.95 0-1.37-1.367-1.37-3.583 0-4.95a3.5 3.5 0 0 1 4.95 0zm59.4 29.698c1.37 1.367 1.37 3.583 0 4.95a3.5 3.5 0 0 1-4.95 0c-1.36-1.367-1.36-3.583 0-4.95a3.5 3.5 0 0 1 4.95 0zm-14.84-14.85c1.36 1.367 1.36 3.583 0 4.95a3.5 3.5 0 0 1-4.95 0c-1.37-1.367-1.37-3.583 0-4.95a3.5 3.5 0 0 1 4.95 0zm-14.85-14.85c1.36 1.367 1.36 3.583 0 4.95-1.37 1.367-3.6 1.367-4.95 0-1.37-1.367-1.37-3.583 0-4.95a3.5 3.5 0 0 1 4.95 0zm-14.85-14.85c1.36 1.367 1.36 3.583 0 4.95-1.37 1.367-3.6 1.367-4.95 0-1.37-1.367-1.37-3.583 0-4.95a3.5 3.5 0 0 1 4.95 0zm44.54 14.85c1.37 1.367 1.37 3.583 0 4.95a3.5 3.5 0 0 1-4.95 0c-1.36-1.367-1.36-3.583 0-4.95 1.37-1.367 3.6-1.367 4.95 0zm-14.84-14.85c1.36 1.367 1.36 3.583 0 4.95-1.37 1.367-3.6 1.367-4.95 0-1.37-1.367-1.37-3.583 0-4.95a3.5 3.5 0 0 1 4.95 0z"/><path d="M707.47 836.03a3.5 3.5 0 0 1 0 4.945 3.5 3.5 0 0 1-4.945 0c-1.366-1.365-1.366-3.58 0-4.945a3.5 3.5 0 0 1 4.945 0zm-14.834-14.834a3.5 3.5 0 0 1 0 4.945 3.5 3.5 0 0 1-4.945 0 3.5 3.5 0 0 1 0-4.945 3.5 3.5 0 0 1 4.945 0zm-14.834-14.834a3.5 3.5 0 0 1 0 4.945 3.5 3.5 0 0 1-4.945 0 3.5 3.5 0 0 1 0-4.945 3.5 3.5 0 0 1 4.945 0zM662.97 791.53a3.5 3.5 0 0 1 0 4.945c-1.366 1.366-3.58 1.366-4.945 0a3.5 3.5 0 0 1 0-4.945 3.5 3.5 0 0 1 4.945 0zm74.17 44.502c1.366 1.366 1.366 3.58 0 4.945s-3.58 1.365-4.944 0-1.366-3.58 0-4.945 3.58-1.365 4.944 0zm-14.834-14.834c1.366 1.366 1.366 3.58 0 4.945s-3.58 1.365-4.944 0-1.366-3.58 0-4.945 3.58-1.365 4.944 0zm-14.833-14.834a3.5 3.5 0 0 1 0 4.945 3.5 3.5 0 0 1-4.945 0c-1.366-1.365-1.366-3.58 0-4.945a3.5 3.5 0 0 1 4.945 0zm-14.834-14.834a3.5 3.5 0 0 1 0 4.945c-1.366 1.366-3.58 1.366-4.945 0a3.5 3.5 0 0 1 0-4.945 3.5 3.5 0 0 1 4.945 0zm-14.834-14.833c1.365 1.365 1.365 3.58 0 4.944s-3.58 1.366-4.945 0-1.365-3.58 0-4.944 3.58-1.366 4.945 0zm-14.834-14.834c1.365 1.365 1.365 3.58 0 4.944s-3.58 1.366-4.945 0-1.365-3.58 0-4.944 3.58-1.366 4.945 0zm103.837 74.17c1.366 1.366 1.366 3.58 0 4.945s-3.58 1.365-4.944 0-1.366-3.58 0-4.945 3.58-1.365 4.944 0zm-14.834-14.834c1.366 1.366 1.366 3.58 0 4.945s-3.58 1.365-4.944 0-1.366-3.58 0-4.945 3.58-1.365 4.944 0zm-14.834-14.834c1.366 1.366 1.366 3.58 0 4.945s-3.58 1.365-4.944 0-1.366-3.58 0-4.945 3.58-1.365 4.944 0zm-14.834-14.834c1.366 1.366 1.366 3.58 0 4.945s-3.58 1.366-4.944 0-1.366-3.58 0-4.945 3.58-1.365 4.944 0zm-14.833-14.833c1.365 1.365 1.365 3.58 0 4.944s-3.58 1.366-4.945 0-1.366-3.58 0-4.944 3.58-1.366 4.945 0zm-14.834-14.834c1.365 1.365 1.365 3.58 0 4.944s-3.58 1.366-4.945 0-1.365-3.58 0-4.944 3.58-1.366 4.945 0zm-14.834-14.834c1.365 1.365 1.365 3.58 0 4.944s-3.58 1.366-4.945 0-1.365-3.58 0-4.944 3.58-1.366 4.945 0zm-14.834-14.834c1.365 1.365 1.365 3.58 0 4.944s-3.58 1.366-4.945 0-1.365-3.58 0-4.944 3.58-1.366 4.945 0zM796.474 836.03c1.366 1.366 1.366 3.58 0 4.945a3.5 3.5 0 0 1-4.945 0 3.5 3.5 0 0 1 0-4.945 3.5 3.5 0 0 1 4.945 0zm-14.834-14.834c1.366 1.366 1.366 3.58 0 4.945s-3.58 1.365-4.944 0-1.366-3.58 0-4.945 3.58-1.365 4.944 0zm-14.834-14.834c1.366 1.366 1.366 3.58 0 4.945s-3.58 1.365-4.944 0-1.366-3.58 0-4.945 3.58-1.365 4.944 0zm-14.834-14.834c1.366 1.366 1.366 3.58 0 4.945s-3.58 1.366-4.944 0-1.366-3.58 0-4.945 3.58-1.365 4.944 0zm-14.834-14.833c1.366 1.365 1.366 3.58 0 4.944s-3.58 1.366-4.944 0-1.366-3.58 0-4.944 3.58-1.366 4.944 0zm-14.834-14.834c1.366 1.365 1.366 3.58 0 4.944s-3.58 1.366-4.944 0-1.366-3.58 0-4.944 3.58-1.366 4.944 0zm-14.833-14.834c1.365 1.365 1.365 3.58 0 4.944s-3.58 1.366-4.945 0-1.366-3.58 0-4.944 3.58-1.366 4.945 0zm-14.834-14.834c1.365 1.365 1.365 3.58 0 4.944s-3.58 1.366-4.945 0-1.365-3.58 0-4.944 3.58-1.366 4.945 0zm-14.834-14.834c1.365 1.365 1.365 3.58 0 4.944s-3.58 1.366-4.945 0-1.365-3.58 0-4.944 3.58-1.366 4.945 0zm-14.834-14.834a3.5 3.5 0 0 1 0 4.945 3.5 3.5 0 0 1-4.945 0 3.5 3.5 0 0 1 0-4.945c1.365-1.366 3.58-1.366 4.945 0zm148.34 118.67a3.5 3.5 0 0 1 0 4.945 3.5 3.5 0 0 1-4.945 0 3.5 3.5 0 0 1 0-4.945 3.5 3.5 0 0 1 4.945 0zm-14.834-14.834c1.366 1.366 1.366 3.58 0 4.945a3.5 3.5 0 0 1-4.945 0 3.5 3.5 0 0 1 0-4.945 3.5 3.5 0 0 1 4.945 0zM781.64 791.53c1.366 1.366 1.366 3.58 0 4.945s-3.58 1.366-4.944 0-1.366-3.58 0-4.945 3.58-1.365 4.944 0zm-14.834-14.833c1.366 1.365 1.366 3.58 0 4.944s-3.58 1.366-4.944 0-1.366-3.58 0-4.944 3.58-1.366 4.944 0zm-44.502-44.502c1.366 1.365 1.366 3.58 0 4.944s-3.58 1.366-4.944 0-1.366-3.58 0-4.944 3.58-1.366 4.944 0zM707.47 717.36c1.365 1.365 1.365 3.58 0 4.944s-3.58 1.366-4.945 0-1.366-3.58 0-4.944 3.58-1.366 4.945 0zm-14.834-14.834a3.5 3.5 0 0 1 0 4.945 3.5 3.5 0 0 1-4.945 0 3.5 3.5 0 0 1 0-4.945c1.365-1.366 3.58-1.366 4.945 0zm-14.834-14.834a3.5 3.5 0 0 1 0 4.945 3.5 3.5 0 0 1-4.945 0 3.5 3.5 0 0 1 0-4.945 3.5 3.5 0 0 1 4.945 0zm148.34 118.67a3.5 3.5 0 0 1 0 4.945 3.5 3.5 0 0 1-4.945 0 3.5 3.5 0 0 1 0-4.945 3.5 3.5 0 0 1 4.945 0zm-14.834-14.834a3.5 3.5 0 0 1 0 4.945c-1.365 1.366-3.58 1.366-4.945 0a3.5 3.5 0 0 1 0-4.945 3.5 3.5 0 0 1 4.945 0zm-14.834-14.833c1.366 1.365 1.366 3.58 0 4.944s-3.58 1.366-4.945 0-1.365-3.58 0-4.944 3.58-1.366 4.945 0zm-14.834-14.834c1.366 1.365 1.366 3.58 0 4.944s-3.58 1.366-4.944 0-1.366-3.58 0-4.944 3.58-1.366 4.944 0zm-44.502-44.502c1.366 1.365 1.366 3.58 0 4.944s-3.58 1.366-4.944 0-1.366-3.58 0-4.944 3.58-1.366 4.944 0zm-14.834-14.834c1.366 1.365 1.366 3.58 0 4.945s-3.58 1.365-4.944 0-1.366-3.58 0-4.945 3.58-1.366 4.944 0zm-14.833-14.834a3.5 3.5 0 0 1 0 4.945 3.5 3.5 0 0 1-4.945 0c-1.366-1.366-1.366-3.58 0-4.945a3.5 3.5 0 0 1 4.945 0zm-14.834-14.834a3.5 3.5 0 0 1 0 4.945 3.5 3.5 0 0 1-4.945 0 3.5 3.5 0 0 1 0-4.945 3.5 3.5 0 0 1 4.945 0zm148.34 118.67a3.5 3.5 0 0 1 0 4.945c-1.365 1.366-3.58 1.366-4.945 0a3.5 3.5 0 0 1 0-4.945 3.5 3.5 0 0 1 4.945 0zm-14.834-14.833c1.365 1.365 1.365 3.58 0 4.944s-3.58 1.366-4.945 0-1.365-3.58 0-4.944 3.58-1.366 4.945 0zm-14.834-14.834c1.365 1.365 1.365 3.58 0 4.944s-3.58 1.366-4.945 0-1.365-3.58 0-4.944 3.58-1.366 4.945 0zm-14.834-14.834c1.366 1.365 1.366 3.58 0 4.944s-3.58 1.366-4.945 0-1.365-3.58 0-4.944 3.58-1.366 4.945 0zm-14.834-14.834c1.366 1.365 1.366 3.58 0 4.944s-3.58 1.366-4.944 0-1.366-3.58 0-4.944 3.58-1.366 4.944 0zm-14.834-14.834c1.366 1.365 1.366 3.58 0 4.944s-3.58 1.366-4.944 0-1.366-3.58 0-4.944 3.58-1.366 4.944 0zm-14.834-14.834c1.366 1.365 1.366 3.58 0 4.945s-3.58 1.365-4.944 0-1.366-3.58 0-4.945 3.58-1.366 4.944 0zm-14.834-14.834c1.366 1.365 1.366 3.58 0 4.945s-3.58 1.365-4.944 0-1.366-3.58 0-4.945 3.58-1.365 4.944 0zm-14.834-14.834c1.366 1.365 1.366 3.58 0 4.945s-3.58 1.365-4.944 0-1.366-3.58 0-4.945 3.58-1.365 4.944 0zm-14.833-14.834a3.5 3.5 0 0 1 0 4.945 3.5 3.5 0 0 1-4.945 0c-1.366-1.366-1.366-3.58 0-4.945a3.5 3.5 0 0 1 4.945 0zm133.505 103.838c1.365 1.365 1.365 3.58 0 4.944s-3.58 1.366-4.945 0-1.365-3.58 0-4.944 3.58-1.366 4.945 0zm-14.834-14.834c1.365 1.365 1.365 3.58 0 4.944s-3.58 1.366-4.945 0-1.365-3.58 0-4.944 3.58-1.366 4.945 0zm-14.834-14.834c1.365 1.365 1.365 3.58 0 4.944s-3.58 1.366-4.945 0-1.365-3.58 0-4.944 3.58-1.366 4.945 0zm-14.834-14.834c1.366 1.365 1.366 3.58 0 4.944s-3.58 1.366-4.945 0-1.365-3.58 0-4.944 3.58-1.366 4.945 0zm-14.834-14.834c1.366 1.365 1.366 3.58 0 4.945s-3.58 1.365-4.944 0-1.366-3.58 0-4.945 3.58-1.366 4.944 0zm-14.834-14.834c1.366 1.365 1.366 3.58 0 4.945s-3.58 1.365-4.944 0-1.366-3.58 0-4.945 3.58-1.365 4.944 0zm-14.834-14.834c1.366 1.365 1.366 3.58 0 4.945s-3.58 1.365-4.944 0-1.366-3.58 0-4.945 3.58-1.365 4.944 0zm-14.834-14.834c1.366 1.365 1.366 3.58 0 4.945s-3.58 1.365-4.944 0-1.366-3.58 0-4.945 3.58-1.365 4.944 0zm103.838 74.17c1.365 1.365 1.365 3.58 0 4.944s-3.58 1.366-4.945 0-1.365-3.58 0-4.944 3.58-1.366 4.945 0zm-14.834-14.834c1.365 1.365 1.365 3.58 0 4.944s-3.58 1.366-4.945 0-1.365-3.58 0-4.944 3.58-1.366 4.945 0zm-14.834-14.834a3.5 3.5 0 0 1 0 4.945 3.5 3.5 0 0 1-4.945 0 3.5 3.5 0 0 1 0-4.945c1.366-1.366 3.58-1.366 4.945 0zm-14.834-14.834c1.366 1.365 1.366 3.58 0 4.945a3.5 3.5 0 0 1-4.945 0 3.5 3.5 0 0 1 0-4.945 3.5 3.5 0 0 1 4.945 0zm-14.834-14.834c1.366 1.365 1.366 3.58 0 4.945s-3.58 1.365-4.944 0-1.366-3.58 0-4.945 3.58-1.365 4.944 0zm-14.834-14.834c1.366 1.365 1.366 3.58 0 4.945s-3.58 1.365-4.944 0-1.366-3.58 0-4.945 3.58-1.365 4.944 0zm74.17 44.502a3.5 3.5 0 0 1 0 4.945 3.5 3.5 0 0 1-4.945 0 3.5 3.5 0 0 1 0-4.945c1.366-1.366 3.58-1.366 4.945 0zm-14.834-14.834a3.5 3.5 0 0 1 0 4.945 3.5 3.5 0 0 1-4.945 0 3.5 3.5 0 0 1 0-4.945 3.5 3.5 0 0 1 4.945 0zm-14.834-14.834a3.5 3.5 0 0 1 0 4.945 3.5 3.5 0 0 1-4.945 0 3.5 3.5 0 0 1 0-4.945 3.5 3.5 0 0 1 4.945 0zm-14.834-14.834c1.366 1.365 1.366 3.58 0 4.945a3.5 3.5 0 0 1-4.945 0 3.5 3.5 0 0 1 0-4.945 3.5 3.5 0 0 1 4.945 0z"/></svg>