<svg xmlns="http://www.w3.org/2000/svg" width="1200" height="900" fill="#d6e1ef" xmlns:v="https://vecta.io/nano"><path d="M93.322 222.015a3.5 3.5 0 1 1-4.95 4.95 3.5 3.5 0 1 1 4.95-4.95zm-14.85-14.85a3.5 3.5 0 0 1-4.95 4.949 3.5 3.5 0 0 1 4.95-4.949zm44.548 14.85a3.5 3.5 0 1 1-4.95 4.95 3.5 3.5 0 1 1 4.95-4.95zm-14.85-14.85a3.5 3.5 0 0 1-4.95 4.949 3.5 3.5 0 0 1 4.95-4.949zm-14.85-14.85a3.5 3.5 0 1 1-4.95 0c1.367-1.366 3.583-1.366 4.95 0zm-14.85-14.85a3.5 3.5 0 1 1-4.95 4.95 3.5 3.5 0 1 1 4.95-4.95zm59.397 29.7a3.5 3.5 0 0 1-4.949 4.949 3.5 3.5 0 0 1 4.949-4.949zm-14.85-14.85a3.5 3.5 0 1 1-4.95 0c1.367-1.366 3.583-1.366 4.95 0zm-14.85-14.85a3.5 3.5 0 1 1-4.95 4.95 3.5 3.5 0 1 1 4.95-4.95zm-14.85-14.85a3.5 3.5 0 1 1-4.95 4.95 3.5 3.5 0 1 1 4.95-4.95zm89.095 59.397a3.5 3.5 0 1 1-4.95 4.95 3.5 3.5 0 1 1 4.95-4.95zm-14.85-14.85a3.5 3.5 0 0 1-4.95 4.949 3.5 3.5 0 0 1 4.95-4.949zm-14.85-14.85c1.366 1.367 1.366 3.583 0 4.95a3.5 3.5 0 1 1-4.95-4.95c1.367-1.366 3.583-1.366 4.95 0zm-14.85-14.85a3.5 3.5 0 0 1-4.949 4.95 3.5 3.5 0 0 1 4.949-4.95zm-14.85-14.85a3.5 3.5 0 1 1-4.95 4.95 3.5 3.5 0 1 1 4.95-4.95zm-14.85-14.85a3.5 3.5 0 0 1 0 4.95c-1.367 1.366-3.583 1.366-4.95 0a3.5 3.5 0 1 1 4.95-4.95zm-14.85-14.85a3.5 3.5 0 0 1-4.95 4.949 3.5 3.5 0 0 1 4.95-4.949zm-14.85-14.85a3.5 3.5 0 0 1-4.95 4.95 3.5 3.5 0 0 1 4.95-4.95zm133.644 103.945c1.366 1.367 1.366 3.583 0 4.95a3.5 3.5 0 1 1 0-4.95zm-14.85-14.85a3.5 3.5 0 0 1-4.949 4.949 3.5 3.5 0 0 1 4.949-4.949zm-14.85-14.85a3.5 3.5 0 1 1-4.95 0c1.367-1.366 3.583-1.366 4.95 0zm-14.85-14.85a3.5 3.5 0 1 1-4.95 4.95 3.5 3.5 0 1 1 4.95-4.95zM123.02 132.92a3.5 3.5 0 0 1-4.95 4.949 3.5 3.5 0 0 1 4.95-4.949zm-14.85-14.85a3.5 3.5 0 1 1-4.95 4.95 3.5 3.5 0 1 1 4.95-4.95zm-14.85-14.85a3.5 3.5 0 1 1-4.95 4.95 3.5 3.5 0 1 1 4.95-4.95zM78.47 88.37a3.5 3.5 0 0 1-4.95 4.95 3.5 3.5 0 0 1 4.95-4.95zm148.493 118.794a3.5 3.5 0 0 1-4.95 4.949 3.5 3.5 0 0 1 4.95-4.949zm-14.85-14.85c1.366 1.367 1.366 3.583 0 4.95a3.5 3.5 0 1 1-4.95-4.95c1.367-1.366 3.583-1.366 4.95 0zm-14.85-14.85a3.5 3.5 0 0 1-4.949 4.95 3.5 3.5 0 0 1 4.949-4.95zm-14.85-14.85a3.5 3.5 0 1 1-4.95 4.95 3.5 3.5 0 1 1 4.95-4.95zM137.87 118.07a3.5 3.5 0 0 1-4.949 4.95 3.5 3.5 0 0 1 4.949-4.95zm-14.85-14.85a3.5 3.5 0 1 1-4.95 4.95 3.5 3.5 0 1 1 4.95-4.95zm-14.85-14.85a3.5 3.5 0 1 1-4.95 4.95 3.5 3.5 0 1 1 4.95-4.95zM93.32 73.52a3.5 3.5 0 0 1-4.95 4.95 3.5 3.5 0 0 1 4.95-4.95zm133.643 103.944a3.5 3.5 0 1 1-4.95 4.95 3.5 3.5 0 1 1 4.95-4.95zm-14.85-14.85c1.366 1.367 1.366 3.583 0 4.95a3.5 3.5 0 1 1 0-4.95zm-14.85-14.85a3.5 3.5 0 0 1-4.949 4.95 3.5 3.5 0 0 1 4.949-4.95zm-14.85-14.85a3.5 3.5 0 0 1-4.95 4.949 3.5 3.5 0 0 1 4.95-4.949zm-14.85-14.85a3.5 3.5 0 1 1-4.95 4.95 3.5 3.5 0 1 1 4.95-4.95zm-14.85-14.85c1.366 1.367 1.366 3.583 0 4.95a3.5 3.5 0 1 1 0-4.95zm-14.85-14.85a3.5 3.5 0 0 1-4.949 4.95 3.5 3.5 0 0 1 4.949-4.95zm-14.85-14.85a3.5 3.5 0 0 1-4.95 4.95 3.5 3.5 0 0 1 4.95-4.95zm89.096 59.397a3.5 3.5 0 0 1-4.95 4.949 3.5 3.5 0 0 1 4.95-4.949zm-14.85-14.85a3.5 3.5 0 0 1-4.949 4.95 3.5 3.5 0 0 1 4.949-4.95zm-14.85-14.85a3.5 3.5 0 1 1-4.95 4.95 3.5 3.5 0 1 1 4.95-4.95zm-14.85-14.85a3.5 3.5 0 1 1-4.95 4.95 3.5 3.5 0 1 1 4.95-4.95zm59.397 29.698a3.5 3.5 0 1 1-4.95 4.95 3.5 3.5 0 1 1 4.95-4.95zm-14.85-14.85c1.366 1.367 1.366 3.583 0 4.95a3.5 3.5 0 1 1 0-4.95zm-14.85-14.85a3.5 3.5 0 0 1-4.949 4.95 3.5 3.5 0 0 1 4.949-4.95zm-14.85-14.85a3.5 3.5 0 1 1-4.95 4.95 3.5 3.5 0 1 1 4.95-4.95zm44.548 14.85a3.5 3.5 0 1 1-4.95 4.95 3.5 3.5 0 1 1 4.95-4.95zm-14.85-14.85a3.5 3.5 0 0 1-4.95 4.95 3.5 3.5 0 0 1 4.95-4.95zm795.366 462.52a3.49 3.49 0 0 1 0 4.945c-1.36 1.365-3.58 1.365-4.94 0a3.49 3.49 0 0 1 0-4.945c1.36-1.365 3.58-1.365 4.94 0zm-14.833-14.834a3.5 3.5 0 0 1 0 4.945 3.5 3.5 0 0 1-4.945 0 3.5 3.5 0 0 1 0-4.945 3.5 3.5 0 0 1 4.945 0zm-14.834-14.834a3.5 3.5 0 0 1 0 4.945 3.5 3.5 0 0 1-4.945 0 3.5 3.5 0 0 1 0-4.945 3.5 3.5 0 0 1 4.945 0zM962.97 491.53a3.5 3.5 0 0 1 0 4.945c-1.366 1.366-3.58 1.366-4.945 0a3.5 3.5 0 0 1 0-4.945 3.5 3.5 0 0 1 4.945 0zm74.17 44.502a3.51 3.51 0 0 1 0 4.945c-1.37 1.365-3.58 1.365-4.95 0a3.51 3.51 0 0 1 0-4.945c1.37-1.365 3.58-1.365 4.95 0zm-14.84-14.834a3.49 3.49 0 0 1 0 4.945c-1.36 1.365-3.57 1.365-4.94 0a3.49 3.49 0 0 1 0-4.945c1.37-1.365 3.58-1.365 4.94 0zm-14.83-14.834a3.49 3.49 0 0 1 0 4.945c-1.36 1.365-3.58 1.365-4.94 0a3.49 3.49 0 0 1 0-4.945c1.36-1.365 3.58-1.365 4.94 0zm-14.833-14.834a3.5 3.5 0 0 1 0 4.945c-1.366 1.366-3.58 1.366-4.945 0a3.5 3.5 0 0 1 0-4.945 3.5 3.5 0 0 1 4.945 0zm-14.834-14.833c1.365 1.365 1.365 3.58 0 4.944a3.5 3.5 0 0 1-4.945 0c-1.365-1.366-1.365-3.58 0-4.944a3.5 3.5 0 0 1 4.945 0zm-14.834-14.834c1.365 1.365 1.365 3.58 0 4.944a3.5 3.5 0 0 1-4.945 0c-1.365-1.366-1.365-3.58 0-4.944a3.5 3.5 0 0 1 4.945 0zm103.84 74.17a3.51 3.51 0 0 1 0 4.945c-1.37 1.365-3.58 1.365-4.95 0a3.51 3.51 0 0 1 0-4.945c1.37-1.365 3.58-1.365 4.95 0zm-14.84-14.834a3.49 3.49 0 0 1 0 4.945c-1.36 1.365-3.58 1.365-4.94 0a3.49 3.49 0 0 1 0-4.945c1.36-1.365 3.58-1.365 4.94 0zm-14.83-14.834a3.51 3.51 0 0 1 0 4.945c-1.37 1.365-3.58 1.365-4.95 0a3.51 3.51 0 0 1 0-4.945c1.37-1.365 3.58-1.365 4.95 0zm-14.84-14.834a3.495 3.495 0 1 1-4.94 4.945 3.49 3.49 0 0 1 0-4.945c1.37-1.365 3.58-1.365 4.94 0zm-14.83-14.833a3.495 3.495 0 1 1-4.94 4.944 3.495 3.495 0 1 1 4.94-4.944zm-14.833-14.834c1.365 1.365 1.365 3.58 0 4.944a3.5 3.5 0 0 1-4.945 0c-1.365-1.366-1.365-3.58 0-4.944a3.5 3.5 0 0 1 4.945 0zm-14.834-14.834c1.365 1.365 1.365 3.58 0 4.944a3.5 3.5 0 0 1-4.945 0c-1.365-1.366-1.365-3.58 0-4.944a3.5 3.5 0 0 1 4.945 0zm-14.834-14.834c1.365 1.365 1.365 3.58 0 4.944a3.5 3.5 0 0 1-4.945 0c-1.365-1.366-1.365-3.58 0-4.944a3.5 3.5 0 0 1 4.945 0zm133.5 103.837a3.49 3.49 0 0 1 0 4.945c-1.36 1.365-3.58 1.365-4.94 0a3.49 3.49 0 0 1 0-4.945c1.36-1.365 3.58-1.365 4.94 0zm-14.83-14.834a3.49 3.49 0 0 1 0 4.945c-1.37 1.365-3.58 1.365-4.94 0a3.49 3.49 0 0 1 0-4.945c1.36-1.365 3.57-1.365 4.94 0zm-14.83-14.834a3.51 3.51 0 0 1 0 4.945c-1.37 1.365-3.58 1.365-4.95 0a3.51 3.51 0 0 1 0-4.945c1.37-1.365 3.58-1.365 4.95 0zm-14.84-14.834a3.495 3.495 0 1 1-4.94 4.945 3.49 3.49 0 0 1 0-4.945c1.36-1.365 3.58-1.365 4.94 0zm-14.83-14.833c1.36 1.365 1.36 3.58 0 4.944a3.5 3.5 0 0 1-4.95 0c-1.36-1.365-1.36-3.58 0-4.944a3.5 3.5 0 0 1 4.95 0zm-14.84-14.834a3.495 3.495 0 1 1-4.94 4.944 3.495 3.495 0 1 1 4.94-4.944zm-14.83-14.834a3.495 3.495 0 1 1-4.94 4.944 3.495 3.495 0 1 1 4.94-4.944zm-14.833-14.834c1.365 1.365 1.365 3.58 0 4.944a3.5 3.5 0 0 1-4.945 0c-1.365-1.366-1.365-3.58 0-4.944a3.5 3.5 0 0 1 4.945 0zM977.8 417.362c1.365 1.365 1.365 3.58 0 4.944a3.5 3.5 0 0 1-4.945 0c-1.365-1.366-1.365-3.58 0-4.944a3.5 3.5 0 0 1 4.945 0zm-14.834-14.834a3.5 3.5 0 0 1 0 4.945 3.5 3.5 0 0 1-4.945 0 3.5 3.5 0 0 1 0-4.945c1.365-1.366 3.58-1.366 4.945 0zm148.34 118.67a3.51 3.51 0 0 1 0 4.945c-1.37 1.365-3.58 1.365-4.95 0a3.51 3.51 0 0 1 0-4.945c1.37-1.365 3.58-1.365 4.95 0zm-14.84-14.834a3.49 3.49 0 0 1 0 4.945c-1.36 1.365-3.58 1.365-4.94 0a3.49 3.49 0 0 1 0-4.945c1.36-1.365 3.58-1.365 4.94 0zm-14.83-14.834a3.495 3.495 0 1 1-4.94 4.945 3.49 3.49 0 0 1 0-4.945c1.36-1.365 3.57-1.365 4.94 0zm-14.83-14.833c1.36 1.365 1.36 3.58 0 4.944a3.5 3.5 0 0 1-4.95 0c-1.36-1.365-1.36-3.58 0-4.944a3.5 3.5 0 0 1 4.95 0zm-44.5-44.502a3.495 3.495 0 1 1-4.94 4.944 3.495 3.495 0 1 1 4.94-4.944zm-14.83-14.834a3.495 3.495 0 1 1-4.94 4.944 3.495 3.495 0 1 1 4.94-4.944zm-14.833-14.834a3.5 3.5 0 0 1 0 4.945 3.5 3.5 0 0 1-4.945 0 3.5 3.5 0 0 1 0-4.945c1.365-1.366 3.58-1.366 4.945 0zM977.8 387.693a3.5 3.5 0 0 1 0 4.945 3.5 3.5 0 0 1-4.945 0 3.5 3.5 0 0 1 0-4.945 3.5 3.5 0 0 1 4.945 0zm148.337 118.67a3.49 3.49 0 0 1 0 4.945c-1.36 1.365-3.58 1.365-4.94 0a3.49 3.49 0 0 1 0-4.945c1.36-1.365 3.58-1.365 4.94 0zm-14.83-14.834a3.51 3.51 0 0 1 0 4.945 3.5 3.5 0 0 1-4.95 0 3.51 3.51 0 0 1 0-4.945c1.37-1.365 3.58-1.365 4.95 0zm-14.84-14.833a3.495 3.495 0 1 1-4.94 4.944 3.495 3.495 0 1 1 4.94-4.944zm-14.83-14.834a3.495 3.495 0 1 1-4.94 4.944 3.495 3.495 0 1 1 4.94-4.944zm-44.5-44.502c1.36 1.365 1.36 3.58 0 4.944a3.5 3.5 0 0 1-4.95 0c-1.36-1.365-1.36-3.58 0-4.944a3.5 3.5 0 0 1 4.95 0zm-14.84-14.834a3.49 3.49 0 0 1 0 4.945c-1.36 1.365-3.57 1.365-4.94 0a3.495 3.495 0 1 1 4.94-4.945zm-14.83-14.834a3.49 3.49 0 0 1 0 4.945c-1.36 1.365-3.58 1.365-4.94 0a3.49 3.49 0 0 1 0-4.945c1.36-1.365 3.58-1.365 4.94 0zm-14.833-14.834a3.5 3.5 0 0 1 0 4.945 3.5 3.5 0 0 1-4.945 0 3.5 3.5 0 0 1 0-4.945 3.5 3.5 0 0 1 4.945 0zm148.343 118.67a3.51 3.51 0 0 1 0 4.945 3.5 3.5 0 0 1-4.95 0 3.51 3.51 0 0 1 0-4.945c1.37-1.365 3.58-1.365 4.95 0zm-14.84-14.833a3.495 3.495 0 1 1-4.94 4.944 3.495 3.495 0 1 1 4.94-4.944zm-14.83-14.834c1.36 1.365 1.36 3.58 0 4.944a3.5 3.5 0 0 1-4.95 0c-1.36-1.365-1.36-3.58 0-4.944a3.5 3.5 0 0 1 4.95 0zm-14.84-14.834a3.495 3.495 0 1 1-4.94 4.944 3.495 3.495 0 1 1 4.94-4.944zm-14.83-14.834a3.495 3.495 0 1 1-4.94 4.944 3.495 3.495 0 1 1 4.94-4.944zm-14.83-14.834c1.36 1.365 1.36 3.58 0 4.944a3.5 3.5 0 0 1-4.95 0c-1.36-1.365-1.36-3.58 0-4.944a3.5 3.5 0 0 1 4.95 0zm-14.84-14.834a3.49 3.49 0 0 1 0 4.945c-1.36 1.365-3.58 1.365-4.94 0a3.495 3.495 0 1 1 4.94-4.945zm-14.83-14.834a3.51 3.51 0 0 1 0 4.945c-1.37 1.365-3.58 1.365-4.95 0a3.51 3.51 0 0 1 0-4.945c1.37-1.365 3.58-1.365 4.95 0zm-14.84-14.834a3.49 3.49 0 0 1 0 4.945c-1.36 1.365-3.57 1.365-4.94 0a3.49 3.49 0 0 1 0-4.945c1.37-1.365 3.58-1.365 4.94 0zm-14.83-14.834a3.49 3.49 0 0 1 0 4.945c-1.36 1.365-3.58 1.365-4.94 0a3.49 3.49 0 0 1 0-4.945c1.36-1.365 3.58-1.365 4.94 0zm133.5 103.838c1.36 1.365 1.36 3.58 0 4.944a3.5 3.5 0 0 1-4.95 0c-1.36-1.365-1.36-3.58 0-4.944a3.5 3.5 0 0 1 4.95 0zm-14.84-14.834a3.495 3.495 0 1 1-4.94 4.944 3.495 3.495 0 1 1 4.94-4.944zm-14.83-14.834c1.36 1.365 1.36 3.58 0 4.944a3.5 3.5 0 0 1-4.95 0c-1.36-1.365-1.36-3.58 0-4.944a3.5 3.5 0 0 1 4.95 0zm-14.84-14.834a3.495 3.495 0 1 1-4.94 4.944 3.495 3.495 0 1 1 4.94-4.944zm-14.83-14.834a3.49 3.49 0 0 1 0 4.945c-1.37 1.365-3.58 1.365-4.94 0a3.495 3.495 0 1 1 4.94-4.945zm-14.83-14.834a3.51 3.51 0 0 1 0 4.945c-1.37 1.365-3.58 1.365-4.95 0a3.51 3.51 0 0 1 0-4.945c1.37-1.365 3.58-1.365 4.95 0zm-14.84-14.834a3.49 3.49 0 0 1 0 4.945c-1.36 1.365-3.58 1.365-4.94 0a3.49 3.49 0 0 1 0-4.945c1.36-1.365 3.58-1.365 4.94 0zm-14.83-14.834a3.51 3.51 0 0 1 0 4.945c-1.37 1.365-3.58 1.365-4.95 0a3.51 3.51 0 0 1 0-4.945c1.37-1.365 3.58-1.365 4.95 0zm103.84 74.17c1.36 1.365 1.36 3.58 0 4.944a3.5 3.5 0 0 1-4.95 0c-1.36-1.365-1.36-3.58 0-4.944a3.5 3.5 0 0 1 4.95 0zm-14.84-14.834a3.495 3.495 0 1 1-4.94 4.944 3.495 3.495 0 1 1 4.94-4.944zm-14.83-14.834a3.51 3.51 0 0 1 0 4.945c-1.37 1.365-3.58 1.365-4.95 0a3.51 3.51 0 0 1 0-4.945 3.5 3.5 0 0 1 4.95 0zm-14.84-14.834a3.49 3.49 0 0 1 0 4.945c-1.36 1.365-3.58 1.365-4.94 0a3.49 3.49 0 0 1 0-4.945c1.36-1.365 3.58-1.365 4.94 0zm-14.83-14.834a3.49 3.49 0 0 1 0 4.945c-1.37 1.365-3.58 1.365-4.94 0a3.49 3.49 0 0 1 0-4.945c1.36-1.365 3.57-1.365 4.94 0zm-14.83-14.834a3.51 3.51 0 0 1 0 4.945c-1.37 1.365-3.58 1.365-4.95 0a3.51 3.51 0 0 1 0-4.945c1.37-1.365 3.58-1.365 4.95 0zm74.17 44.502a3.51 3.51 0 0 1 0 4.945c-1.37 1.365-3.58 1.365-4.95 0a3.51 3.51 0 0 1 0-4.945 3.5 3.5 0 0 1 4.95 0zm-14.84-14.834a3.49 3.49 0 0 1 0 4.945c-1.36 1.365-3.58 1.365-4.94 0a3.49 3.49 0 0 1 0-4.945c1.36-1.365 3.58-1.365 4.94 0zm-14.83-14.834a3.51 3.51 0 0 1 0 4.945c-1.37 1.365-3.58 1.365-4.95 0a3.51 3.51 0 0 1 0-4.945c1.37-1.365 3.58-1.365 4.95 0zm-14.84-14.834a3.49 3.49 0 0 1 0 4.945c-1.36 1.365-3.58 1.365-4.94 0a3.49 3.49 0 0 1 0-4.945c1.36-1.365 3.58-1.365 4.94 0z"/></svg>