<svg xmlns="http://www.w3.org/2000/svg" width="1200" height="900" fill="#d6e1ef" xmlns:v="https://vecta.io/nano"><path d="M393.322 222.015c1.366 1.367 1.366 3.583 0 4.95a3.5 3.5 0 1 1 0-4.95zm-14.85-14.85a3.5 3.5 0 0 1-4.949 4.949 3.5 3.5 0 0 1 4.949-4.949zm44.548 14.85a3.5 3.5 0 1 1-4.95 4.95 3.5 3.5 0 1 1 4.95-4.95zm-14.85-14.85a3.5 3.5 0 0 1-4.95 4.949 3.5 3.5 0 0 1 4.95-4.949zm-14.85-14.85c1.366 1.367 1.366 3.583 0 4.95a3.5 3.5 0 1 1-4.95-4.95c1.367-1.366 3.583-1.366 4.95 0zm-14.85-14.85a3.5 3.5 0 0 1-4.949 4.95 3.5 3.5 0 0 1 4.949-4.95zm59.397 29.7a3.5 3.5 0 0 1-4.949 4.949 3.5 3.5 0 0 1 4.949-4.949zm-14.85-14.85a3.5 3.5 0 1 1-4.95 0c1.367-1.366 3.583-1.366 4.95 0zm-14.85-14.85a3.5 3.5 0 1 1-4.95 4.95 3.5 3.5 0 1 1 4.95-4.95zm-14.85-14.85c1.366 1.367 1.366 3.583 0 4.95a3.5 3.5 0 1 1 0-4.95zm89.095 59.397a3.5 3.5 0 1 1-4.95 4.95 3.5 3.5 0 1 1 4.95-4.95zm-14.85-14.85a3.5 3.5 0 0 1-4.95 4.949 3.5 3.5 0 0 1 4.95-4.949zm-14.85-14.85c1.366 1.367 1.366 3.583 0 4.95a3.5 3.5 0 1 1-4.95-4.95c1.367-1.366 3.583-1.366 4.95 0zm-14.85-14.85a3.5 3.5 0 0 1-4.949 4.95 3.5 3.5 0 0 1 4.949-4.95zm-14.85-14.85a3.5 3.5 0 1 1-4.95 4.95 3.5 3.5 0 1 1 4.95-4.95zm-14.85-14.85a3.5 3.5 0 0 1 0 4.95c-1.367 1.366-3.583 1.366-4.95 0a3.5 3.5 0 1 1 4.95-4.95zm-14.85-14.85a3.5 3.5 0 0 1-4.95 4.949 3.5 3.5 0 0 1 4.95-4.949zm-14.85-14.85a3.5 3.5 0 0 1-4.949 4.95 3.5 3.5 0 0 1 4.949-4.95zm133.643 103.945a3.5 3.5 0 0 1-4.949 4.95 3.5 3.5 0 0 1 4.949-4.95zm-14.85-14.85a3.5 3.5 0 0 1-4.95 4.949 3.5 3.5 0 0 1 4.95-4.949zm-14.85-14.85a3.5 3.5 0 1 1-4.95 0c1.367-1.366 3.583-1.366 4.95 0zm-14.85-14.85a3.5 3.5 0 1 1-4.95 4.95 3.5 3.5 0 1 1 4.95-4.95zM423.02 132.92a3.5 3.5 0 0 1-4.95 4.949 3.5 3.5 0 0 1 4.95-4.949zm-14.85-14.85a3.5 3.5 0 1 1-4.95 4.95 3.5 3.5 0 1 1 4.95-4.95zm-14.85-14.85c1.366 1.367 1.366 3.583 0 4.95a3.5 3.5 0 1 1 0-4.95zm-14.85-14.85a3.5 3.5 0 0 1-4.949 4.95 3.5 3.5 0 0 1 4.949-4.95zm148.493 118.794a3.5 3.5 0 0 1-4.95 4.949 3.5 3.5 0 0 1 4.95-4.949zm-14.85-14.85a3.5 3.5 0 0 1-4.949 4.95 3.5 3.5 0 0 1 4.949-4.95zm-14.85-14.85a3.5 3.5 0 1 1-4.95 4.95c-1.366-1.367-1.366-3.583 0-4.95a3.5 3.5 0 0 1 4.95 0zm-14.85-14.85a3.5 3.5 0 1 1-4.95 4.95 3.5 3.5 0 1 1 4.95-4.95zM437.87 118.07a3.5 3.5 0 0 1-4.949 4.95 3.5 3.5 0 0 1 4.949-4.95zm-14.85-14.85a3.5 3.5 0 1 1-4.95 4.95 3.5 3.5 0 1 1 4.95-4.95zm-14.85-14.85a3.5 3.5 0 1 1-4.95 4.95 3.5 3.5 0 1 1 4.95-4.95zm-14.85-14.85a3.5 3.5 0 1 1-4.95 4.95 3.5 3.5 0 1 1 4.95-4.95zm133.643 103.944a3.5 3.5 0 1 1-4.95 4.95 3.5 3.5 0 1 1 4.95-4.95zm-14.85-14.85a3.5 3.5 0 0 1-4.949 4.95 3.5 3.5 0 0 1 4.949-4.95zm-14.85-14.85a3.5 3.5 0 0 1 0 4.95c-1.367 1.366-3.583 1.366-4.95 0a3.5 3.5 0 1 1 4.95-4.95zm-14.85-14.85a3.5 3.5 0 0 1-4.95 4.949 3.5 3.5 0 0 1 4.95-4.949zm-14.85-14.85a3.5 3.5 0 1 1-4.95 4.95 3.5 3.5 0 1 1 4.95-4.95zm-14.85-14.85c1.366 1.367 1.366 3.583 0 4.95a3.5 3.5 0 1 1 0-4.95zm-14.85-14.85a3.5 3.5 0 0 1-4.949 4.95 3.5 3.5 0 0 1 4.949-4.95zm-14.85-14.85a3.5 3.5 0 1 1-4.95 4.95 3.5 3.5 0 1 1 4.95-4.95zm89.095 59.397a3.5 3.5 0 0 1-4.949 4.949 3.5 3.5 0 0 1 4.949-4.949zm-14.85-14.85a3.5 3.5 0 1 1-4.95 4.95c-1.366-1.367-1.366-3.583 0-4.95a3.5 3.5 0 0 1 4.95 0zm-14.85-14.85a3.5 3.5 0 1 1-4.95 4.95 3.5 3.5 0 1 1 4.95-4.95zm-14.85-14.85a3.5 3.5 0 1 1-4.95 4.95 3.5 3.5 0 1 1 4.95-4.95zm59.397 29.698a3.5 3.5 0 1 1-4.95 4.95 3.5 3.5 0 1 1 4.95-4.95zm-14.85-14.85a3.5 3.5 0 0 1-4.949 4.95 3.5 3.5 0 0 1 4.949-4.95zm-14.85-14.85a3.5 3.5 0 1 1-4.95 4.95c-1.366-1.367-1.366-3.583 0-4.95a3.5 3.5 0 0 1 4.95 0zm-14.85-14.85a3.5 3.5 0 1 1-4.95 4.95 3.5 3.5 0 1 1 4.95-4.95zm44.548 14.85a3.5 3.5 0 1 1-4.95 4.95 3.5 3.5 0 1 1 4.95-4.95zm-14.85-14.85a3.5 3.5 0 0 1-4.949 4.95 3.5 3.5 0 0 1 4.949-4.95zM707.47 836.03a3.5 3.5 0 0 1 0 4.945 3.5 3.5 0 0 1-4.945 0c-1.366-1.365-1.366-3.58 0-4.945a3.5 3.5 0 0 1 4.945 0zm-14.834-14.834a3.5 3.5 0 0 1 0 4.945 3.5 3.5 0 0 1-4.945 0 3.5 3.5 0 0 1 0-4.945 3.5 3.5 0 0 1 4.945 0zm-14.834-14.834a3.5 3.5 0 0 1 0 4.945 3.5 3.5 0 0 1-4.945 0 3.5 3.5 0 0 1 0-4.945 3.5 3.5 0 0 1 4.945 0zM662.97 791.53a3.5 3.5 0 0 1 0 4.945c-1.366 1.366-3.58 1.366-4.945 0a3.5 3.5 0 0 1 0-4.945 3.5 3.5 0 0 1 4.945 0zm74.17 44.502c1.366 1.366 1.366 3.58 0 4.945s-3.58 1.365-4.944 0a3.5 3.5 0 0 1 0-4.945c1.366-1.365 3.58-1.365 4.944 0zm-14.834-14.834c1.366 1.366 1.366 3.58 0 4.945s-3.58 1.365-4.944 0a3.5 3.5 0 0 1 0-4.945c1.366-1.365 3.58-1.365 4.944 0zm-14.833-14.834a3.5 3.5 0 0 1 0 4.945 3.5 3.5 0 0 1-4.945 0c-1.366-1.365-1.366-3.58 0-4.945a3.5 3.5 0 0 1 4.945 0zM692.64 791.53a3.5 3.5 0 0 1 0 4.945c-1.366 1.366-3.58 1.366-4.945 0a3.5 3.5 0 0 1 0-4.945 3.5 3.5 0 0 1 4.945 0zm-14.834-14.833c1.365 1.365 1.365 3.58 0 4.944a3.5 3.5 0 0 1-4.945 0c-1.365-1.366-1.365-3.58 0-4.944a3.5 3.5 0 0 1 4.945 0zm-14.834-14.834c1.365 1.365 1.365 3.58 0 4.944a3.5 3.5 0 0 1-4.945 0c-1.365-1.366-1.365-3.58 0-4.944a3.5 3.5 0 0 1 4.945 0zm103.837 74.17c1.366 1.366 1.366 3.58 0 4.945s-3.58 1.365-4.944 0a3.5 3.5 0 0 1 0-4.945c1.366-1.365 3.58-1.365 4.944 0zM751.974 821.2c1.366 1.366 1.366 3.58 0 4.945s-3.58 1.365-4.944 0a3.5 3.5 0 0 1 0-4.945c1.366-1.365 3.58-1.365 4.944 0zm-14.834-14.834c1.366 1.366 1.366 3.58 0 4.945s-3.58 1.365-4.944 0a3.5 3.5 0 0 1 0-4.945c1.366-1.365 3.58-1.365 4.944 0zm-14.834-14.834c1.366 1.366 1.366 3.58 0 4.945s-3.58 1.366-4.944 0a3.5 3.5 0 0 1 0-4.945c1.366-1.365 3.58-1.365 4.944 0zm-14.833-14.833c1.365 1.365 1.365 3.58 0 4.944a3.5 3.5 0 0 1-4.945 0c-1.365-1.366-1.366-3.58 0-4.944a3.5 3.5 0 0 1 4.945 0zm-14.834-14.834c1.365 1.365 1.365 3.58 0 4.944a3.5 3.5 0 0 1-4.945 0c-1.365-1.366-1.365-3.58 0-4.944a3.5 3.5 0 0 1 4.945 0zm-14.834-14.834c1.365 1.365 1.365 3.58 0 4.944a3.5 3.5 0 0 1-4.945 0c-1.365-1.366-1.365-3.58 0-4.944a3.5 3.5 0 0 1 4.945 0zm-14.834-14.834c1.365 1.365 1.365 3.58 0 4.944a3.5 3.5 0 0 1-4.945 0c-1.365-1.366-1.365-3.58 0-4.944a3.5 3.5 0 0 1 4.945 0zM796.474 836.03c1.366 1.366 1.366 3.58 0 4.945a3.5 3.5 0 0 1-4.945 0 3.5 3.5 0 0 1 0-4.945 3.5 3.5 0 0 1 4.945 0zm-14.834-14.834c1.366 1.366 1.366 3.58 0 4.945s-3.58 1.365-4.944 0a3.5 3.5 0 0 1 0-4.945c1.366-1.365 3.58-1.365 4.944 0zm-14.834-14.834c1.366 1.366 1.366 3.58 0 4.945s-3.58 1.365-4.944 0a3.5 3.5 0 0 1 0-4.945c1.366-1.365 3.58-1.365 4.944 0zm-14.834-14.834c1.366 1.366 1.366 3.58 0 4.945s-3.58 1.366-4.944 0a3.5 3.5 0 0 1 0-4.945c1.366-1.365 3.58-1.365 4.944 0zm-14.834-14.833c1.366 1.365 1.366 3.58 0 4.944s-3.58 1.366-4.944 0-1.366-3.58 0-4.944 3.58-1.366 4.944 0zm-14.834-14.834c1.366 1.365 1.366 3.58 0 4.944s-3.58 1.366-4.944 0-1.366-3.58 0-4.944 3.58-1.366 4.944 0zm-14.833-14.834c1.365 1.365 1.365 3.58 0 4.944a3.5 3.5 0 0 1-4.945 0c-1.365-1.366-1.366-3.58 0-4.944a3.5 3.5 0 0 1 4.945 0zm-14.834-14.834c1.365 1.365 1.365 3.58 0 4.944a3.5 3.5 0 0 1-4.945 0c-1.365-1.366-1.365-3.58 0-4.944a3.5 3.5 0 0 1 4.945 0zm-14.834-14.834c1.365 1.365 1.365 3.58 0 4.944a3.5 3.5 0 0 1-4.945 0c-1.365-1.366-1.365-3.58 0-4.944a3.5 3.5 0 0 1 4.945 0zm-14.834-14.834a3.5 3.5 0 0 1 0 4.945 3.5 3.5 0 0 1-4.945 0 3.5 3.5 0 0 1 0-4.945c1.365-1.366 3.58-1.366 4.945 0zm148.34 118.67a3.5 3.5 0 0 1 0 4.945 3.5 3.5 0 0 1-4.945 0 3.5 3.5 0 0 1 0-4.945 3.5 3.5 0 0 1 4.945 0zm-14.834-14.834c1.366 1.366 1.366 3.58 0 4.945a3.5 3.5 0 0 1-4.945 0 3.5 3.5 0 0 1 0-4.945 3.5 3.5 0 0 1 4.945 0zm-14.835-14.83c1.366 1.366 1.366 3.58 0 4.945s-3.58 1.366-4.944 0a3.5 3.5 0 0 1 0-4.945c1.366-1.365 3.58-1.365 4.944 0zm-14.834-14.833c1.366 1.365 1.366 3.58 0 4.944s-3.58 1.366-4.944 0-1.366-3.58 0-4.944 3.58-1.366 4.944 0zm-44.502-44.502c1.366 1.365 1.366 3.58 0 4.944s-3.58 1.366-4.944 0-1.366-3.58 0-4.944 3.58-1.366 4.944 0zM707.47 717.36c1.365 1.365 1.365 3.58 0 4.944a3.5 3.5 0 0 1-4.945 0c-1.365-1.366-1.366-3.58 0-4.944a3.5 3.5 0 0 1 4.945 0zm-14.834-14.834a3.5 3.5 0 0 1 0 4.945 3.5 3.5 0 0 1-4.945 0 3.5 3.5 0 0 1 0-4.945c1.365-1.366 3.58-1.366 4.945 0zm-14.834-14.834a3.5 3.5 0 0 1 0 4.945 3.5 3.5 0 0 1-4.945 0 3.5 3.5 0 0 1 0-4.945 3.5 3.5 0 0 1 4.945 0zm148.34 118.67a3.5 3.5 0 0 1 0 4.945 3.5 3.5 0 0 1-4.945 0 3.5 3.5 0 0 1 0-4.945 3.5 3.5 0 0 1 4.945 0zm-14.834-14.834a3.5 3.5 0 0 1 0 4.945c-1.365 1.366-3.58 1.366-4.945 0a3.5 3.5 0 0 1 0-4.945 3.5 3.5 0 0 1 4.945 0zm-14.834-14.833c1.366 1.365 1.366 3.58 0 4.944a3.5 3.5 0 0 1-4.945 0c-1.365-1.366-1.365-3.58 0-4.944a3.5 3.5 0 0 1 4.945 0zM781.64 761.86c1.366 1.365 1.366 3.58 0 4.944s-3.58 1.366-4.944 0-1.366-3.58 0-4.944 3.58-1.366 4.944 0zm-44.502-44.502c1.366 1.365 1.366 3.58 0 4.944s-3.58 1.366-4.944 0-1.366-3.58 0-4.944 3.58-1.366 4.944 0zm-14.834-14.834c1.366 1.365 1.366 3.58 0 4.945s-3.58 1.365-4.944 0a3.5 3.5 0 0 1 0-4.945c1.366-1.365 3.58-1.366 4.944 0zM707.47 687.69a3.5 3.5 0 0 1 0 4.945 3.5 3.5 0 0 1-4.945 0c-1.366-1.366-1.366-3.58 0-4.945a3.5 3.5 0 0 1 4.945 0zm-14.834-14.834a3.5 3.5 0 0 1 0 4.945 3.5 3.5 0 0 1-4.945 0 3.5 3.5 0 0 1 0-4.945 3.5 3.5 0 0 1 4.945 0zm148.34 118.67a3.5 3.5 0 0 1 0 4.945c-1.365 1.366-3.58 1.366-4.945 0a3.5 3.5 0 0 1 0-4.945 3.5 3.5 0 0 1 4.945 0zm-14.834-14.833c1.365 1.365 1.365 3.58 0 4.944a3.5 3.5 0 0 1-4.945 0c-1.365-1.366-1.365-3.58 0-4.944a3.5 3.5 0 0 1 4.945 0zM811.31 761.86c1.365 1.365 1.365 3.58 0 4.944a3.5 3.5 0 0 1-4.945 0c-1.365-1.366-1.365-3.58 0-4.944a3.5 3.5 0 0 1 4.945 0zm-14.834-14.834c1.366 1.365 1.366 3.58 0 4.944a3.5 3.5 0 0 1-4.945 0c-1.365-1.366-1.365-3.58 0-4.944a3.5 3.5 0 0 1 4.945 0zm-14.834-14.834c1.366 1.365 1.366 3.58 0 4.944s-3.58 1.366-4.944 0-1.366-3.58 0-4.944 3.58-1.366 4.944 0zm-14.834-14.834c1.366 1.365 1.366 3.58 0 4.944s-3.58 1.366-4.944 0-1.366-3.58 0-4.944 3.58-1.366 4.944 0zm-14.834-14.834c1.366 1.365 1.366 3.58 0 4.945s-3.58 1.365-4.944 0a3.5 3.5 0 0 1 0-4.945c1.366-1.365 3.58-1.366 4.944 0zM737.14 687.7c1.366 1.365 1.366 3.58 0 4.945s-3.58 1.365-4.944 0a3.5 3.5 0 0 1 0-4.945c1.366-1.365 3.58-1.365 4.944 0zm-14.834-14.834c1.366 1.365 1.366 3.58 0 4.945s-3.58 1.365-4.944 0a3.5 3.5 0 0 1 0-4.945c1.366-1.365 3.58-1.365 4.944 0zm-14.833-14.834a3.5 3.5 0 0 1 0 4.945 3.5 3.5 0 0 1-4.945 0c-1.366-1.366-1.366-3.58 0-4.945a3.5 3.5 0 0 1 4.945 0zM840.977 761.86c1.365 1.365 1.365 3.58 0 4.944a3.5 3.5 0 0 1-4.945 0c-1.365-1.366-1.365-3.58 0-4.944a3.5 3.5 0 0 1 4.945 0zm-14.834-14.834c1.365 1.365 1.365 3.58 0 4.944a3.5 3.5 0 0 1-4.945 0c-1.365-1.366-1.365-3.58 0-4.944a3.5 3.5 0 0 1 4.945 0zm-14.834-14.834c1.365 1.365 1.365 3.58 0 4.944a3.5 3.5 0 0 1-4.945 0c-1.365-1.366-1.365-3.58 0-4.944a3.5 3.5 0 0 1 4.945 0zm-14.834-14.834c1.366 1.365 1.366 3.58 0 4.944a3.5 3.5 0 0 1-4.945 0c-1.365-1.366-1.365-3.58 0-4.944a3.5 3.5 0 0 1 4.945 0zm-14.834-14.834c1.366 1.365 1.366 3.58 0 4.945s-3.58 1.365-4.944 0a3.5 3.5 0 0 1 0-4.945c1.366-1.365 3.58-1.366 4.944 0zM766.807 687.7c1.366 1.365 1.366 3.58 0 4.945s-3.58 1.365-4.944 0a3.5 3.5 0 0 1 0-4.945c1.366-1.365 3.58-1.365 4.944 0zm-14.834-14.834c1.366 1.365 1.366 3.58 0 4.945s-3.58 1.365-4.944 0a3.5 3.5 0 0 1 0-4.945c1.366-1.365 3.58-1.365 4.944 0zm-14.834-14.834c1.366 1.365 1.366 3.58 0 4.945s-3.58 1.365-4.944 0a3.5 3.5 0 0 1 0-4.945c1.366-1.365 3.58-1.365 4.944 0zm103.838 74.17c1.365 1.365 1.365 3.58 0 4.944a3.5 3.5 0 0 1-4.945 0c-1.365-1.366-1.365-3.58 0-4.944a3.5 3.5 0 0 1 4.945 0zm-14.834-14.834c1.365 1.365 1.365 3.58 0 4.944a3.5 3.5 0 0 1-4.945 0c-1.365-1.366-1.365-3.58 0-4.944a3.5 3.5 0 0 1 4.945 0zm-14.834-14.834a3.5 3.5 0 0 1 0 4.945 3.5 3.5 0 0 1-4.945 0 3.5 3.5 0 0 1 0-4.945c1.366-1.366 3.58-1.366 4.945 0zM796.475 687.7c1.366 1.365 1.366 3.58 0 4.945a3.5 3.5 0 0 1-4.945 0 3.5 3.5 0 0 1 0-4.945 3.5 3.5 0 0 1 4.945 0zm-14.834-14.834c1.366 1.365 1.366 3.58 0 4.945s-3.58 1.365-4.944 0a3.5 3.5 0 0 1 0-4.945c1.366-1.365 3.58-1.365 4.944 0zm-14.834-14.834c1.366 1.365 1.366 3.58 0 4.945s-3.58 1.365-4.944 0a3.5 3.5 0 0 1 0-4.945c1.366-1.365 3.58-1.365 4.944 0zm74.17 44.502a3.5 3.5 0 0 1 0 4.945 3.5 3.5 0 0 1-4.945 0 3.5 3.5 0 0 1 0-4.945c1.366-1.366 3.58-1.366 4.945 0zM826.143 687.7a3.5 3.5 0 0 1 0 4.945 3.5 3.5 0 0 1-4.945 0 3.5 3.5 0 0 1 0-4.945 3.5 3.5 0 0 1 4.945 0zm-14.834-14.834a3.5 3.5 0 0 1 0 4.945 3.5 3.5 0 0 1-4.945 0 3.5 3.5 0 0 1 0-4.945 3.5 3.5 0 0 1 4.945 0zm-14.834-14.834c1.366 1.365 1.366 3.58 0 4.945a3.5 3.5 0 0 1-4.945 0 3.5 3.5 0 0 1 0-4.945 3.5 3.5 0 0 1 4.945 0z"/></svg>