<svg xmlns="http://www.w3.org/2000/svg" xmlns:xlink="http://www.w3.org/1999/xlink" width="1200" height="600" fill="none" xmlns:v="https://vecta.io/nano"><g fill="#fff"><path d="M992.673 77.975a3.5 3.5 0 0 1-4.949-4.95 3.5 3.5 0 0 1 4.949 4.95zm-14.85 14.85a3.5 3.5 0 0 1-4.95-4.95 3.5 3.5 0 0 1 4.95 4.95zm-14.85 14.85a3.5 3.5 0 0 1-4.95-4.949 3.5 3.5 0 0 1 4.95 4.949zm9.9 14.85c1.367 1.366 3.583 1.366 4.95 0a3.5 3.5 0 1 0-4.95-4.95c-1.366 1.367-1.366 3.583 0 4.95zm-9.9 14.85a3.5 3.5 0 1 1-4.95-4.95 3.5 3.5 0 1 1 4.95 4.95zm9.9 14.848a3.5 3.5 0 1 0 4.95-4.95c-1.367-1.366-3.583-1.366-4.95 0a3.5 3.5 0 0 0 0 4.95zm19.8 14.85a3.5 3.5 0 0 1-4.949-4.949 3.5 3.5 0 0 1 4.949 4.949zm9.897 14.85c1.37 1.366 3.6 1.366 4.95 0 1.37-1.367 1.37-3.583 0-4.95a3.5 3.5 0 0 0-4.95 0c-1.36 1.367-1.36 3.583 0 4.95zm19.8 14.85a3.5 3.5 0 0 1-4.95 0c-1.36-1.367-1.36-3.583 0-4.95a3.5 3.5 0 0 1 4.95 0c1.37 1.367 1.37 3.583 0 4.95z"/><use xlink:href="#B"/><use xlink:href="#C"/><use xlink:href="#B" x="29.7"/><use xlink:href="#D"/><use xlink:href="#B" y="-29.698"/><use xlink:href="#E"/><path d="M1002.57 152.22a3.5 3.5 0 0 0 4.95 0c1.37-1.367 1.37-3.583 0-4.95-1.36-1.366-3.58-1.366-4.95 0-1.36 1.367-1.36 3.583 0 4.95zm-9.897-14.848a3.5 3.5 0 0 1-4.949-4.95 3.5 3.5 0 0 1 4.949 4.95z"/><use xlink:href="#B" x="44.55" y="-14.848"/><use xlink:href="#D" x="14.85" y="-14.85"/><use xlink:href="#C" y="-59.397"/><use xlink:href="#D" x="-14.85" y="-44.55"/><use xlink:href="#F"/><path d="M1007.52 122.523c-1.36 1.366-3.58 1.366-4.95 0-1.36-1.367-1.36-3.583 0-4.95a3.5 3.5 0 0 1 4.95 0c1.37 1.367 1.37 3.583 0 4.95zm-19.796-14.85a3.5 3.5 0 0 0 4.949-4.949 3.5 3.5 0 0 0-4.949 4.949z"/><use xlink:href="#G"/><path d="M1081.77 167.07a3.5 3.5 0 0 1-4.95 0c-1.37-1.367-1.37-3.583 0-4.95a3.5 3.5 0 0 1 4.95 0c1.37 1.366 1.37 3.582 0 4.95z"/><use xlink:href="#B" x="29.7" y="-59.398"/><use xlink:href="#D" y="-59.398"/><use xlink:href="#B" y="-89.095"/><use xlink:href="#E" y="-59.397"/><use xlink:href="#F" x="-14.85" y="-44.548"/><use xlink:href="#H"/><use xlink:href="#I"/><use xlink:href="#B" x="44.55" y="-74.246"/><use xlink:href="#D" x="14.85" y="-74.247"/><use xlink:href="#C" y="-118.794"/><use xlink:href="#D" x="-14.85" y="-103.946"/><use xlink:href="#F" y="-59.397"/><path d="M1126.32 152.22a3.5 3.5 0 0 1-4.95 0c-1.37-1.367-1.37-3.583 0-4.95 1.36-1.366 3.58-1.366 4.95 0 1.36 1.367 1.36 3.583 0 4.95z"/><use xlink:href="#G" x="14.85" y="-44.548"/><use xlink:href="#I" y="-29.697"/><use xlink:href="#C" x="29.7" y="-118.794"/><use xlink:href="#D" x="14.85" y="-103.946"/><use xlink:href="#G" x="44.55" y="-44.548"/><path d="M1126.32 122.523c-1.37 1.366-3.6 1.366-4.95 0-1.37-1.367-1.37-3.583 0-4.95a3.5 3.5 0 0 1 4.95 0c1.36 1.367 1.36 3.583 0 4.95z"/><use xlink:href="#H" y="-59.397"/><use xlink:href="#I" y="-59.396"/><use xlink:href="#B" x="44.55" y="-133.643"/><path d="M1141.17 107.673a3.5 3.5 0 0 1-4.95 0c-1.37-1.367-1.37-3.583 0-4.95a3.5 3.5 0 0 1 4.95 0c1.36 1.366 1.36 3.582 0 4.95z"/><use xlink:href="#G" x="29.7" y="-89.096"/><path d="M1111.47 77.975a3.5 3.5 0 0 1-4.95 0c-1.37-1.367-1.37-3.583 0-4.95a3.5 3.5 0 0 1 4.95 0c1.36 1.367 1.36 3.583 0 4.95zm-418.148 444.04c1.366 1.367 1.366 3.583 0 4.95a3.5 3.5 0 1 1 0-4.95zm-14.85-14.85a3.5 3.5 0 0 1-4.949 4.95 3.5 3.5 0 0 1 4.949-4.95zm44.548 14.85a3.5 3.5 0 1 1-4.95 4.95 3.5 3.5 0 1 1 4.95-4.95zm-14.85-14.85a3.5 3.5 0 0 1 0 4.95c-1.367 1.366-3.583 1.366-4.95 0a3.5 3.5 0 1 1 4.95-4.95zm-14.85-14.85a3.5 3.5 0 0 1-4.95 4.949 3.5 3.5 0 0 1 4.95-4.949zm-14.85-14.85a3.5 3.5 0 0 1-4.949 4.95 3.5 3.5 0 0 1 4.949-4.95zm59.397 29.7a3.5 3.5 0 0 1-4.949 4.95 3.5 3.5 0 0 1 4.949-4.95zm-14.85-14.85a3.5 3.5 0 0 1-4.95 4.949 3.5 3.5 0 0 1 4.95-4.949zm-14.85-14.85a3.5 3.5 0 1 1-4.95 4.95 3.5 3.5 0 1 1 4.95-4.95zm-14.85-14.85c1.366 1.367 1.366 3.583 0 4.95a3.5 3.5 0 1 1 0-4.95zm89.095 59.397a3.5 3.5 0 1 1-4.95 4.95 3.5 3.5 0 1 1 4.95-4.95zm-14.85-14.85a3.5 3.5 0 0 1 0 4.95c-1.367 1.366-3.583 1.366-4.95 0a3.5 3.5 0 1 1 4.95-4.95zm-14.85-14.85a3.5 3.5 0 0 1-4.95 4.949 3.5 3.5 0 0 1 4.95-4.949zm-14.85-14.85a3.5 3.5 0 0 1-4.949 4.95 3.5 3.5 0 0 1 4.949-4.95zm-14.85-14.85a3.5 3.5 0 1 1-4.95 4.95 3.5 3.5 0 1 1 4.95-4.95zm-14.85-14.85a3.5 3.5 0 0 1 0 4.95c-1.367 1.366-3.583 1.366-4.95 0a3.5 3.5 0 1 1 4.95-4.95zm-14.85-14.85a3.5 3.5 0 0 1-4.95 4.949 3.5 3.5 0 0 1 4.95-4.949zm-14.85-14.85a3.5 3.5 0 0 1-4.949 4.95 3.5 3.5 0 0 1 4.949-4.95zm133.643 103.945a3.5 3.5 0 0 1-4.949 4.95 3.5 3.5 0 0 1 4.949-4.95zm-14.85-14.85a3.5 3.5 0 0 1 0 4.95c-1.367 1.366-3.583 1.366-4.95 0a3.5 3.5 0 1 1 4.95-4.95zm-14.85-14.85a3.5 3.5 0 0 1-4.95 4.949 3.5 3.5 0 0 1 4.95-4.949zm-14.85-14.85a3.5 3.5 0 1 1-4.95 4.95 3.5 3.5 0 1 1 4.95-4.95zM723.02 432.92a3.5 3.5 0 0 1-4.95 4.949 3.5 3.5 0 0 1 4.95-4.949zm-14.85-14.85a3.5 3.5 0 1 1-4.95 0c1.367-1.366 3.583-1.366 4.95 0zm-14.85-14.85c1.366 1.367 1.366 3.583 0 4.95a3.5 3.5 0 1 1 0-4.95zm-14.85-14.85a3.5 3.5 0 0 1-4.949 4.95 3.5 3.5 0 0 1 4.949-4.95zm148.493 118.794a3.5 3.5 0 0 1 0 4.95c-1.367 1.366-3.583 1.366-4.95 0a3.5 3.5 0 1 1 4.95-4.95zm-14.85-14.85a3.5 3.5 0 0 1-4.949 4.949 3.5 3.5 0 0 1 4.949-4.949zm-14.85-14.85a3.5 3.5 0 1 1-4.95 4.95c-1.366-1.367-1.366-3.583 0-4.95a3.5 3.5 0 0 1 4.95 0zm-14.85-14.85a3.5 3.5 0 1 1-4.95 4.95 3.5 3.5 0 1 1 4.95-4.95zM737.87 418.07a3.5 3.5 0 0 1-4.949 4.95 3.5 3.5 0 0 1 4.949-4.95zm-14.85-14.85a3.5 3.5 0 1 1-4.95 4.95 3.5 3.5 0 1 1 4.95-4.95zm-14.85-14.85a3.5 3.5 0 0 1 0 4.95c-1.367 1.366-3.583 1.366-4.95 0a3.5 3.5 0 1 1 4.95-4.95zm-14.85-14.85a3.5 3.5 0 0 1-4.95 4.949 3.5 3.5 0 0 1 4.95-4.949zm133.643 103.944a3.5 3.5 0 1 1-4.95 4.95 3.5 3.5 0 1 1 4.95-4.95zm-14.85-14.85a3.5 3.5 0 0 1-4.949 4.95 3.5 3.5 0 0 1 4.949-4.95zm-14.85-14.85a3.5 3.5 0 0 1 0 4.95c-1.367 1.366-3.583 1.366-4.95 0a3.5 3.5 0 1 1 4.95-4.95zm-14.85-14.85a3.5 3.5 0 0 1-4.95 4.949 3.5 3.5 0 0 1 4.95-4.949zm-14.85-14.85a3.5 3.5 0 1 1-4.95 0c1.367-1.366 3.583-1.366 4.95 0zm-14.85-14.85c1.366 1.367 1.366 3.583 0 4.95a3.5 3.5 0 1 1 0-4.95zm-14.85-14.85a3.5 3.5 0 0 1-4.949 4.95 3.5 3.5 0 0 1 4.949-4.95zm-14.85-14.85a3.5 3.5 0 0 1-4.95 4.949 3.5 3.5 0 0 1 4.95-4.949zm89.095 59.397a3.5 3.5 0 0 1-4.949 4.949 3.5 3.5 0 0 1 4.949-4.949zm-14.85-14.85a3.5 3.5 0 1 1-4.95 4.95c-1.366-1.367-1.366-3.583 0-4.95a3.5 3.5 0 0 1 4.95 0zm-14.85-14.85a3.5 3.5 0 1 1-4.95 4.95 3.5 3.5 0 1 1 4.95-4.95zm-14.85-14.85a3.5 3.5 0 0 1 0 4.95c-1.367 1.366-3.583 1.366-4.95 0a3.5 3.5 0 1 1 4.95-4.95zm59.397 29.698a3.5 3.5 0 1 1-4.95 0c1.367-1.366 3.583-1.366 4.95 0zm-14.85-14.85a3.5 3.5 0 0 1-4.949 4.95 3.5 3.5 0 0 1 4.949-4.95zm-14.85-14.85a3.5 3.5 0 0 1 0 4.95c-1.367 1.366-3.583 1.366-4.95 0a3.5 3.5 0 1 1 4.95-4.95zm-14.85-14.85a3.5 3.5 0 0 1-4.95 4.949 3.5 3.5 0 0 1 4.95-4.949zm44.548 14.85a3.5 3.5 0 0 1 0 4.95c-1.367 1.366-3.583 1.366-4.95 0a3.5 3.5 0 1 1 4.95-4.95zm-14.85-14.85a3.5 3.5 0 0 1-4.949 4.949 3.5 3.5 0 0 1 4.949-4.949z"/></g><defs ><path id="B" d="M1032.27 211.618a3.5 3.5 0 0 0 4.95 0c1.37-1.367 1.37-3.583 0-4.95a3.5 3.5 0 0 0-4.95 0c-1.37 1.367-1.37 3.583 0 4.95z"/><path id="C" d="M1047.12 226.467a3.5 3.5 0 0 0 4.95 0c1.37-1.367 1.37-3.583 0-4.95a3.5 3.5 0 0 0-4.95 0c-1.37 1.366-1.37 3.582 0 4.95z"/><path id="D" d="M1052.07 196.77a3.5 3.5 0 0 1-4.95 0c-1.37-1.367-1.37-3.583 0-4.95a3.5 3.5 0 0 1 4.95 0c1.37 1.367 1.37 3.583 0 4.95z"/><path id="E" d="M1022.37 167.07a3.5 3.5 0 0 1-4.95 0c-1.36-1.367-1.36-3.583 0-4.95a3.5 3.5 0 0 1 4.95 0c1.37 1.366 1.37 3.582 0 4.95z"/><path id="F" d="M1017.42 137.372a3.5 3.5 0 0 0 4.95 0c1.37-1.367 1.37-3.583 0-4.95a3.5 3.5 0 0 0-4.95 0c-1.36 1.367-1.36 3.583 0 4.95z"/><path id="G" d="M1091.67 181.92a3.5 3.5 0 0 0 4.95 0c1.36-1.367 1.36-3.583 0-4.95a3.5 3.5 0 0 0-4.95 0c-1.37 1.367-1.37 3.583 0 4.95z"/><path id="H" d="M1106.52 167.07a3.5 3.5 0 0 0 4.95 0c1.36-1.367 1.36-3.583 0-4.95a3.5 3.5 0 0 0-4.95 0c-1.37 1.366-1.37 3.582 0 4.95z"/><path id="I" d="M1096.62 152.22a3.5 3.5 0 0 1-4.95 0c-1.37-1.367-1.37-3.583 0-4.95a3.5 3.5 0 0 1 4.95 0c1.36 1.367 1.36 3.583 0 4.95z"/></defs></svg>