<svg xmlns="http://www.w3.org/2000/svg" width="1200" height="900" fill="#d6e1ef" xmlns:v="https://vecta.io/nano"><path d="M93.322 222.015a3.5 3.5 0 1 1-4.95 4.95 3.5 3.5 0 1 1 4.95-4.95zm-14.85-14.85a3.5 3.5 0 0 1-4.95 4.95 3.5 3.5 0 0 1 4.95-4.95zm44.548 14.85a3.5 3.5 0 1 1-4.95 4.95 3.5 3.5 0 1 1 4.95-4.95zm-14.85-14.85a3.5 3.5 0 0 1 0 4.95c-1.367 1.366-3.583 1.366-4.95 0a3.5 3.5 0 1 1 4.95-4.95zm-14.85-14.85a3.5 3.5 0 0 1-4.95 4.949 3.5 3.5 0 0 1 4.95-4.949zm-14.85-14.85a3.5 3.5 0 1 1-4.95 4.95 3.5 3.5 0 1 1 4.95-4.95zm59.397 29.7a3.5 3.5 0 0 1-4.949 4.95 3.5 3.5 0 0 1 4.949-4.95zm-14.85-14.85a3.5 3.5 0 0 1-4.95 4.949 3.5 3.5 0 0 1 4.95-4.949zm-14.85-14.85a3.5 3.5 0 1 1-4.95 4.95 3.5 3.5 0 1 1 4.95-4.95zm-14.85-14.85a3.5 3.5 0 1 1-4.95 4.95 3.5 3.5 0 1 1 4.95-4.95zm89.095 59.397a3.5 3.5 0 1 1-4.95 4.95 3.5 3.5 0 1 1 4.95-4.95zm-14.85-14.85a3.5 3.5 0 0 1 0 4.95c-1.367 1.366-3.583 1.366-4.95 0a3.5 3.5 0 1 1 4.95-4.95zm-14.85-14.85a3.5 3.5 0 0 1-4.95 4.949 3.5 3.5 0 0 1 4.95-4.949zm-14.85-14.85a3.5 3.5 0 0 1-4.949 4.95 3.5 3.5 0 0 1 4.949-4.95zm-14.85-14.85a3.5 3.5 0 1 1-4.95 4.95 3.5 3.5 0 1 1 4.95-4.95zm-14.85-14.85a3.5 3.5 0 0 1 0 4.95c-1.367 1.366-3.583 1.366-4.95 0a3.5 3.5 0 1 1 4.95-4.95zm-14.85-14.85a3.5 3.5 0 0 1-4.95 4.949 3.5 3.5 0 0 1 4.95-4.949zm-14.85-14.85a3.5 3.5 0 0 1-4.95 4.95 3.5 3.5 0 0 1 4.95-4.95zm133.644 103.945c1.366 1.367 1.366 3.583 0 4.95a3.5 3.5 0 1 1 0-4.95zm-14.85-14.85a3.5 3.5 0 0 1-4.949 4.95 3.5 3.5 0 0 1 4.949-4.95zm-14.85-14.85a3.5 3.5 0 0 1-4.95 4.949 3.5 3.5 0 0 1 4.95-4.949zm-14.85-14.85a3.5 3.5 0 1 1-4.95 4.95 3.5 3.5 0 1 1 4.95-4.95zM123.02 132.92a3.5 3.5 0 0 1-4.95 4.949 3.5 3.5 0 0 1 4.95-4.949zm-14.85-14.85a3.5 3.5 0 1 1-4.95 0c1.367-1.366 3.583-1.366 4.95 0zm-14.85-14.85a3.5 3.5 0 1 1-4.95 4.95 3.5 3.5 0 1 1 4.95-4.95zM78.47 88.37a3.5 3.5 0 0 1-4.95 4.95 3.5 3.5 0 0 1 4.95-4.95zm148.493 118.794a3.5 3.5 0 0 1 0 4.95c-1.367 1.366-3.583 1.366-4.95 0a3.5 3.5 0 1 1 4.95-4.95zm-14.85-14.85a3.5 3.5 0 0 1-4.95 4.949 3.5 3.5 0 0 1 4.95-4.949zm-14.85-14.85a3.5 3.5 0 0 1-4.949 4.95 3.5 3.5 0 0 1 4.949-4.95zm-14.85-14.85a3.5 3.5 0 1 1-4.95 4.95 3.5 3.5 0 1 1 4.95-4.95zM137.87 118.07a3.5 3.5 0 0 1-4.949 4.95 3.5 3.5 0 0 1 4.949-4.95zm-14.85-14.85a3.5 3.5 0 1 1-4.95 4.95 3.5 3.5 0 1 1 4.95-4.95zm-14.85-14.85a3.5 3.5 0 0 1-4.95 4.95 3.5 3.5 0 0 1 4.95-4.95zM93.32 73.52a3.5 3.5 0 0 1-4.95 4.95 3.5 3.5 0 0 1 4.95-4.95zm133.643 103.944a3.5 3.5 0 1 1-4.95 4.95 3.5 3.5 0 1 1 4.95-4.95zm-14.85-14.85c1.366 1.367 1.366 3.583 0 4.95a3.5 3.5 0 1 1 0-4.95zm-14.85-14.85a3.5 3.5 0 0 1-4.949 4.95 3.5 3.5 0 0 1 4.949-4.95zm-14.85-14.85a3.5 3.5 0 0 1-4.95 4.949 3.5 3.5 0 0 1 4.95-4.949zm-14.85-14.85a3.5 3.5 0 1 1-4.95 0c1.367-1.366 3.583-1.366 4.95 0zm-14.85-14.85c1.366 1.367 1.366 3.583 0 4.95a3.5 3.5 0 1 1 0-4.95zm-14.85-14.85a3.5 3.5 0 0 1-4.949 4.95 3.5 3.5 0 0 1 4.949-4.95zm-14.85-14.85a3.5 3.5 0 1 1-4.95 4.95 3.5 3.5 0 1 1 4.95-4.95zm89.096 59.397a3.5 3.5 0 0 1-4.95 4.949 3.5 3.5 0 0 1 4.95-4.949zm-14.85-14.85a3.5 3.5 0 0 1-4.949 4.95 3.5 3.5 0 0 1 4.949-4.95zm-14.85-14.85a3.5 3.5 0 1 1-4.95 4.95 3.5 3.5 0 1 1 4.95-4.95zm-14.85-14.85a3.5 3.5 0 0 1-4.95 4.95 3.5 3.5 0 0 1 4.95-4.95zm59.397 29.698a3.5 3.5 0 1 1-4.95 0c1.367-1.366 3.583-1.366 4.95 0zm-14.85-14.85c1.366 1.367 1.366 3.583 0 4.95a3.5 3.5 0 1 1 0-4.95zm-14.85-14.85a3.5 3.5 0 0 1-4.949 4.95 3.5 3.5 0 0 1 4.949-4.95zm-14.85-14.85a3.5 3.5 0 1 1-4.95 4.95 3.5 3.5 0 1 1 4.95-4.95zm44.548 14.85a3.5 3.5 0 0 1-4.95 4.95 3.5 3.5 0 0 1 4.95-4.95zm-14.85-14.85c1.366 1.367 1.366 3.583 0 4.95a3.5 3.5 0 1 1 0-4.95zm924.516 658.715a3.5 3.5 0 0 1 4.95 0c1.37 1.366 1.37 3.583 0 4.95a3.5 3.5 0 0 1-4.95 0c-1.37-1.366-1.37-3.583 0-4.95zm0 29.698a3.5 3.5 0 0 1 4.95 0c1.37 1.367 1.37 3.583 0 4.95a3.5 3.5 0 0 1-4.95 0c-1.37-1.367-1.37-3.583 0-4.95zm-14.85-44.548a3.5 3.5 0 0 1 4.95 0c1.37 1.367 1.37 3.583 0 4.95a3.5 3.5 0 0 1-4.95 0c-1.37-1.367-1.37-3.583 0-4.95zm0 29.7a3.5 3.5 0 0 1 4.95 0c1.37 1.367 1.37 3.583 0 4.95a3.5 3.5 0 0 1-4.95 0c-1.37-1.367-1.37-3.583 0-4.95zm0 29.698a3.5 3.5 0 0 1 4.95 0c1.37 1.367 1.37 3.583 0 4.95a3.5 3.5 0 0 1-4.95 0c-1.37-1.367-1.37-3.583 0-4.95zm-14.85-74.246a3.5 3.5 0 0 1 4.95 0c1.37 1.367 1.37 3.583 0 4.95a3.5 3.5 0 0 1-4.95 0c-1.36-1.367-1.36-3.583 0-4.95zm0 29.7a3.5 3.5 0 0 1 4.95 0c1.37 1.366 1.37 3.583 0 4.95a3.5 3.5 0 0 1-4.95 0c-1.36-1.366-1.36-3.583 0-4.95zm0 29.698a3.5 3.5 0 0 1 4.95 0c1.37 1.367 1.37 3.583 0 4.95a3.5 3.5 0 0 1-4.95 0c-1.36-1.367-1.36-3.583 0-4.95zm0 29.7a3.5 3.5 0 0 1 4.95 0c1.37 1.366 1.37 3.582 0 4.95a3.5 3.5 0 0 1-4.95 0c-1.36-1.367-1.36-3.583 0-4.95zm-14.85-74.247c1.37-1.366 3.6-1.366 4.95 0 1.37 1.367 1.37 3.583 0 4.95a3.5 3.5 0 0 1-4.95 0c-1.36-1.367-1.36-3.583 0-4.95zm0 29.7a3.5 3.5 0 0 1 4.95 0c1.37 1.367 1.37 3.583 0 4.95-1.36 1.366-3.58 1.366-4.95 0-1.36-1.367-1.36-3.583 0-4.95zm0 29.698c1.37-1.366 3.6-1.366 4.95 0 1.37 1.367 1.37 3.583 0 4.95a3.5 3.5 0 0 1-4.95 0c-1.36-1.367-1.36-3.583 0-4.95zm-14.85-74.246a3.5 3.5 0 0 1 4.95 0c1.37 1.367 1.37 3.583 0 4.95a3.5 3.5 0 0 1-4.95 0c-1.36-1.367-1.36-3.583 0-4.95zm0 29.7a3.5 3.5 0 0 1 4.95 0c1.37 1.366 1.37 3.583 0 4.95a3.5 3.5 0 0 1-4.95 0c-1.36-1.366-1.36-3.583 0-4.95zm0 29.698a3.5 3.5 0 0 1 4.95 0c1.37 1.367 1.37 3.583 0 4.95a3.5 3.5 0 0 1-4.95 0c-1.36-1.367-1.36-3.583 0-4.95zm0 29.7a3.5 3.5 0 0 1 4.95 0c1.37 1.366 1.37 3.582 0 4.95a3.5 3.5 0 0 1-4.95 0c-1.36-1.367-1.36-3.583 0-4.95zm-14.85-74.247c1.37-1.366 3.6-1.366 4.95 0 1.37 1.367 1.37 3.583 0 4.95a3.5 3.5 0 0 1-4.95 0c-1.36-1.367-1.36-3.583 0-4.95zm0 29.7a3.5 3.5 0 0 1 4.95 0c1.37 1.367 1.37 3.583 0 4.95-1.36 1.366-3.58 1.366-4.95 0-1.36-1.367-1.36-3.583 0-4.95zm0 29.698c1.37-1.366 3.6-1.366 4.95 0 1.37 1.367 1.37 3.583 0 4.95a3.5 3.5 0 0 1-4.95 0c-1.36-1.367-1.36-3.583 0-4.95zm-14.75-14.85a3.5 3.5 0 0 1 4.95 0c1.37 1.367 1.37 3.583 0 4.95a3.5 3.5 0 0 1-4.95 0c-1.37-1.367-1.37-3.583 0-4.95zm0-29.698a3.5 3.5 0 0 1 4.95 0c1.37 1.366 1.37 3.583 0 4.95a3.5 3.5 0 0 1-4.95 0c-1.37-1.366-1.37-3.583 0-4.95zm-14.85-14.85a3.5 3.5 0 0 1 4.95 0c1.37 1.367 1.37 3.583 0 4.95a3.5 3.5 0 0 1-4.95 0c-1.37-1.367-1.37-3.583 0-4.95zm0 29.7a3.5 3.5 0 0 1 4.95 0c1.37 1.367 1.37 3.583 0 4.95a3.5 3.5 0 0 1-4.95 0c-1.37-1.367-1.37-3.583 0-4.95zm0 29.698a3.5 3.5 0 0 1 4.95 0c1.37 1.367 1.37 3.583 0 4.95a3.5 3.5 0 0 1-4.95 0c-1.37-1.367-1.37-3.583 0-4.95zm-14.85-74.246a3.5 3.5 0 0 1 4.95 0c1.37 1.367 1.37 3.583 0 4.95a3.5 3.5 0 0 1-4.95 0c-1.36-1.367-1.36-3.583 0-4.95zm0 29.7a3.5 3.5 0 0 1 4.95 0c1.37 1.366 1.37 3.583 0 4.95a3.5 3.5 0 0 1-4.95 0c-1.36-1.366-1.36-3.583 0-4.95zm0 29.698a3.5 3.5 0 0 1 4.95 0c1.37 1.367 1.37 3.583 0 4.95a3.5 3.5 0 0 1-4.95 0c-1.36-1.367-1.36-3.583 0-4.95zm0 29.7a3.5 3.5 0 0 1 4.95 0c1.37 1.366 1.37 3.582 0 4.95a3.5 3.5 0 0 1-4.95 0c-1.36-1.367-1.36-3.583 0-4.95zm-14.85-74.247c1.37-1.366 3.6-1.366 4.95 0 1.37 1.367 1.37 3.583 0 4.95a3.5 3.5 0 0 1-4.95 0c-1.36-1.367-1.36-3.583 0-4.95zm0 29.7a3.5 3.5 0 0 1 4.95 0c1.37 1.367 1.37 3.583 0 4.95-1.36 1.366-3.58 1.366-4.95 0-1.36-1.367-1.36-3.583 0-4.95zm0 29.698c1.37-1.366 3.6-1.366 4.95 0 1.37 1.367 1.37 3.583 0 4.95a3.5 3.5 0 0 1-4.95 0c-1.36-1.367-1.36-3.583 0-4.95zm-14.846-74.246a3.5 3.5 0 0 1 4.949 4.95 3.5 3.5 0 0 1-4.949-4.95zm0 29.7a3.5 3.5 0 0 1 4.949 4.949 3.5 3.5 0 0 1-4.949-4.949zm0 29.698a3.5 3.5 0 0 1 4.949 4.95 3.5 3.5 0 0 1-4.949-4.95zm0 29.7a3.5 3.5 0 0 1 4.949 4.949 3.5 3.5 0 0 1-4.949-4.949zm-14.85-74.247c1.367-1.366 3.583-1.366 4.95 0a3.5 3.5 0 1 1-4.95 4.95c-1.366-1.367-1.366-3.583 0-4.95zm0 29.7a3.5 3.5 0 1 1 4.95 4.95c-1.367 1.366-3.583 1.366-4.95 0a3.5 3.5 0 0 1 0-4.95zm0 29.698c1.367-1.366 3.583-1.366 4.95 0a3.5 3.5 0 1 1-4.95 4.95c-1.366-1.367-1.366-3.583 0-4.95zm-14.85-14.85a3.5 3.5 0 1 1 4.95 4.95 3.5 3.5 0 1 1-4.95-4.95zm0-29.698a3.5 3.5 0 0 1 4.95 4.949 3.5 3.5 0 0 1-4.95-4.949z"/></svg>