<svg xmlns="http://www.w3.org/2000/svg" width="1200" height="900" fill="#fff" xmlns:v="https://vecta.io/nano"><path d="M393.322 222.015c1.366 1.367 1.366 3.583 0 4.95a3.5 3.5 0 1 1-4.95-4.95 3.5 3.5 0 0 1 4.95 0zm-14.85-14.85a3.5 3.5 0 0 1-4.949 4.95 3.5 3.5 0 0 1 4.949-4.95zm44.548 14.85a3.5 3.5 0 1 1-4.95 4.95 3.5 3.5 0 1 1 4.95-4.95zm-14.85-14.85a3.5 3.5 0 0 1 0 4.95c-1.367 1.366-3.583 1.366-4.95 0a3.5 3.5 0 1 1 4.95-4.95zm-14.85-14.85a3.5 3.5 0 0 1-4.95 4.949 3.5 3.5 0 0 1 4.95-4.949zm-14.85-14.85a3.5 3.5 0 0 1-4.949 4.95 3.5 3.5 0 0 1 4.949-4.95zm59.397 29.7a3.5 3.5 0 0 1-4.949 4.95 3.5 3.5 0 0 1 4.949-4.95zm-14.85-14.85a3.5 3.5 0 0 1-4.95 4.949 3.5 3.5 0 0 1 4.95-4.949zm-14.85-14.85a3.5 3.5 0 1 1-4.95 4.95 3.5 3.5 0 1 1 4.95-4.95zm-14.85-14.85c1.366 1.367 1.366 3.583 0 4.95a3.5 3.5 0 1 1-4.95-4.95 3.5 3.5 0 0 1 4.95 0zm89.095 59.397a3.5 3.5 0 1 1-4.95 4.95 3.5 3.5 0 1 1 4.95-4.95zm-14.85-14.85a3.5 3.5 0 0 1 0 4.95c-1.367 1.366-3.583 1.366-4.95 0a3.5 3.5 0 1 1 4.95-4.95zm-14.85-14.85a3.5 3.5 0 0 1-4.95 4.949 3.5 3.5 0 0 1 4.95-4.949zm-14.85-14.85a3.5 3.5 0 0 1-4.949 4.95 3.5 3.5 0 0 1 4.949-4.95zm-14.85-14.85a3.5 3.5 0 1 1-4.95 4.95 3.5 3.5 0 1 1 4.95-4.95zm-14.85-14.85a3.5 3.5 0 0 1 0 4.95c-1.367 1.366-3.583 1.366-4.95 0a3.5 3.5 0 1 1 4.95-4.95zm-14.85-14.85a3.5 3.5 0 0 1-4.95 4.949 3.5 3.5 0 0 1 4.95-4.949zm-14.85-14.85a3.5 3.5 0 0 1-4.949 4.95 3.5 3.5 0 0 1 4.949-4.95zm133.643 103.945a3.5 3.5 0 0 1-4.949 4.95 3.5 3.5 0 0 1 4.949-4.95zm-14.85-14.85a3.5 3.5 0 0 1 0 4.95c-1.367 1.366-3.583 1.366-4.95 0s-1.366-3.583 0-4.95a3.5 3.5 0 0 1 4.95 0zm-14.85-14.85a3.5 3.5 0 0 1-4.95 4.949 3.5 3.5 0 0 1 4.95-4.949zm-14.85-14.85a3.5 3.5 0 1 1-4.95 4.95 3.5 3.5 0 1 1 4.95-4.95zM423.02 132.92a3.5 3.5 0 0 1-4.95 4.949 3.5 3.5 0 0 1 4.95-4.949zm-14.85-14.85a3.5 3.5 0 1 1-4.95 4.95 3.5 3.5 0 0 1 0-4.95c1.367-1.366 3.583-1.366 4.95 0zm-14.85-14.85c1.366 1.367 1.366 3.583 0 4.95a3.5 3.5 0 1 1-4.95-4.95 3.5 3.5 0 0 1 4.95 0zm-14.85-14.85a3.5 3.5 0 0 1-4.949 4.95 3.5 3.5 0 0 1 4.949-4.95zm148.493 118.794a3.5 3.5 0 0 1 0 4.95c-1.367 1.366-3.583 1.366-4.95 0a3.5 3.5 0 1 1 4.95-4.95zm-14.85-14.85a3.5 3.5 0 0 1-4.949 4.949 3.5 3.5 0 0 1 4.949-4.949zm-14.85-14.85a3.5 3.5 0 1 1-4.95 4.95c-1.366-1.367-1.366-3.583 0-4.95a3.5 3.5 0 0 1 4.95 0zm-14.85-14.85a3.5 3.5 0 1 1-4.95 4.95 3.5 3.5 0 1 1 4.95-4.95zM437.87 118.07a3.5 3.5 0 0 1-4.949 4.95 3.5 3.5 0 0 1 4.949-4.95zm-14.85-14.85a3.5 3.5 0 1 1-4.95 4.95 3.5 3.5 0 1 1 4.95-4.95zm-14.85-14.85a3.5 3.5 0 1 1-4.95 4.95 3.5 3.5 0 1 1 4.95-4.95zm-14.85-14.85c1.366 1.367 1.366 3.583 0 4.95a3.5 3.5 0 1 1-4.95-4.95 3.5 3.5 0 0 1 4.95 0zm133.643 103.944a3.5 3.5 0 1 1-4.95 4.95 3.5 3.5 0 1 1 4.95-4.95zm-14.85-14.85a3.5 3.5 0 0 1-4.949 4.95 3.5 3.5 0 0 1 4.949-4.95zm-14.85-14.85a3.5 3.5 0 0 1 0 4.95c-1.367 1.366-3.583 1.366-4.95 0s-1.366-3.583 0-4.95a3.5 3.5 0 0 1 4.95 0zm-14.85-14.85a3.5 3.5 0 0 1-4.95 4.949 3.5 3.5 0 0 1 4.95-4.949zm-14.85-14.85a3.5 3.5 0 1 1-4.95 4.95 3.5 3.5 0 0 1 0-4.95c1.367-1.366 3.583-1.366 4.95 0zm-14.85-14.85c1.366 1.367 1.366 3.583 0 4.95a3.5 3.5 0 1 1-4.95-4.95 3.5 3.5 0 0 1 4.95 0zm-14.85-14.85a3.5 3.5 0 0 1-4.949 4.95 3.5 3.5 0 0 1 4.949-4.95zm-14.85-14.85a3.5 3.5 0 1 1-4.95 4.95 3.5 3.5 0 1 1 4.95-4.95zm89.095 59.397a3.5 3.5 0 0 1-4.949 4.949 3.5 3.5 0 0 1 4.949-4.949zm-14.85-14.85a3.5 3.5 0 1 1-4.95 4.95c-1.366-1.367-1.366-3.583 0-4.95s3.583-1.366 4.95 0zm-14.85-14.85a3.5 3.5 0 1 1-4.95 4.95 3.5 3.5 0 1 1 4.95-4.95zm-14.85-14.85a3.5 3.5 0 1 1-4.95 4.95 3.5 3.5 0 1 1 4.95-4.95zm59.397 29.698a3.5 3.5 0 1 1-4.95 4.95 3.5 3.5 0 0 1 0-4.95c1.367-1.366 3.583-1.366 4.95 0zm-14.85-14.85a3.5 3.5 0 0 1-4.949 4.95 3.5 3.5 0 0 1 4.949-4.95zm-14.85-14.85a3.5 3.5 0 1 1-4.95 4.95 3.5 3.5 0 1 1 4.95-4.95zm-14.85-14.85a3.5 3.5 0 1 1-4.95 4.95 3.5 3.5 0 1 1 4.95-4.95zm44.548 14.85a3.5 3.5 0 1 1-4.95 4.95 3.5 3.5 0 1 1 4.95-4.95zm-14.85-14.85a3.5 3.5 0 0 1-4.949 4.95 3.5 3.5 0 0 1 4.949-4.95z"/><path d="M1007.52 536.214c1.37 1.366 1.37 3.582 0 4.95a3.5 3.5 0 0 1-4.95 0c-1.37-1.367-1.37-3.583 0-4.95a3.5 3.5 0 0 1 4.95 0zm-14.85-14.85a3.5 3.5 0 1 1-4.95 4.95 3.5 3.5 0 1 1 4.95-4.95zm-14.85-14.85c1.366 1.367 1.366 3.583 0 4.95a3.5 3.5 0 1 1 0-4.95zm-14.85-14.85a3.5 3.5 0 0 1-4.949 4.95 3.5 3.5 0 0 1 4.949-4.95zm74.248 44.548c1.37 1.366 1.37 3.582 0 4.95a3.5 3.5 0 0 1-4.95 0c-1.37-1.367-1.37-3.583 0-4.95a3.5 3.5 0 0 1 4.95 0zm-14.85-14.85c1.37 1.367 1.37 3.583 0 4.95a3.5 3.5 0 0 1-4.95 0c-1.37-1.367-1.37-3.583 0-4.95a3.5 3.5 0 0 1 4.95 0zm-14.85-14.85c1.37 1.367 1.37 3.583 0 4.95a3.5 3.5 0 0 1-4.95 0c-1.37-1.367-1.37-3.583 0-4.95a3.5 3.5 0 0 1 4.95 0zm-14.85-14.85a3.5 3.5 0 0 1 0 4.95c-1.367 1.366-3.583 1.366-4.95 0a3.5 3.5 0 1 1 4.95-4.95zm-14.85-14.85a3.5 3.5 0 0 1-4.95 4.949 3.5 3.5 0 0 1 4.95-4.949zm-14.85-14.85a3.5 3.5 0 0 1-4.949 4.95 3.5 3.5 0 0 1 4.949-4.95zm103.948 74.247c1.36 1.366 1.36 3.582 0 4.95a3.5 3.5 0 0 1-4.95 0c-1.37-1.367-1.37-3.583 0-4.95a3.5 3.5 0 0 1 4.95 0zm-14.85-14.85c1.36 1.367 1.36 3.583 0 4.95a3.5 3.5 0 0 1-4.95 0c-1.37-1.367-1.37-3.583 0-4.95a3.5 3.5 0 0 1 4.95 0zm-14.85-14.85c1.37 1.367 1.37 3.583 0 4.95a3.5 3.5 0 0 1-4.95 0c-1.37-1.367-1.37-3.583 0-4.95a3.5 3.5 0 0 1 4.95 0zm-14.85-14.85c1.37 1.367 1.37 3.583 0 4.95a3.5 3.5 0 0 1-4.95 0c-1.37-1.367-1.37-3.583 0-4.95a3.5 3.5 0 0 1 4.95 0zm-14.85-14.85c1.37 1.366 1.37 3.582 0 4.95a3.5 3.5 0 0 1-4.95 0c-1.37-1.367-1.37-3.583 0-4.95a3.5 3.5 0 0 1 4.95 0zm-14.85-14.85a3.5 3.5 0 1 1-4.95 4.95 3.5 3.5 0 1 1 4.95-4.95zm-14.85-14.85c1.366 1.367 1.366 3.583 0 4.95a3.5 3.5 0 1 1 0-4.95zm-14.85-14.85a3.5 3.5 0 0 1-4.949 4.95 3.5 3.5 0 0 1 4.949-4.95zm133.648 103.945c1.36 1.366 1.36 3.582 0 4.95a3.5 3.5 0 0 1-4.95 0c-1.37-1.367-1.37-3.583 0-4.95a3.5 3.5 0 0 1 4.95 0zm-14.85-14.85c1.36 1.367 1.36 3.583 0 4.95a3.5 3.5 0 0 1-4.95 0c-1.37-1.367-1.37-3.583 0-4.95a3.5 3.5 0 0 1 4.95 0zm-14.85-14.85c1.36 1.367 1.36 3.583 0 4.95a3.5 3.5 0 0 1-4.95 0c-1.37-1.367-1.37-3.583 0-4.95a3.5 3.5 0 0 1 4.95 0zm-14.85-14.85c1.36 1.367 1.36 3.583 0 4.95-1.37 1.366-3.6 1.366-4.95 0-1.37-1.367-1.37-3.583 0-4.95a3.5 3.5 0 0 1 4.95 0zm-14.85-14.85c1.37 1.366 1.37 3.582 0 4.95a3.5 3.5 0 0 1-4.95 0c-1.37-1.367-1.37-3.583 0-4.95a3.5 3.5 0 0 1 4.95 0zm-14.85-14.85c1.37 1.367 1.37 3.583 0 4.95a3.5 3.5 0 0 1-4.95 0c-1.37-1.367-1.37-3.583 0-4.95a3.5 3.5 0 0 1 4.95 0zm-14.85-14.85c1.37 1.367 1.37 3.583 0 4.95a3.5 3.5 0 0 1-4.95 0c-1.37-1.367-1.37-3.583 0-4.95a3.5 3.5 0 0 1 4.95 0zm-14.85-14.85a3.5 3.5 0 0 1 0 4.95c-1.367 1.366-3.583 1.366-4.95 0a3.5 3.5 0 1 1 4.95-4.95zm-14.85-14.85a3.5 3.5 0 0 1-4.95 4.949 3.5 3.5 0 0 1 4.95-4.949zm-14.85-14.85a3.5 3.5 0 0 1-4.949 4.95 3.5 3.5 0 0 1 4.949-4.95zm148.488 118.794c1.37 1.367 1.37 3.583 0 4.95a3.49 3.49 0 0 1-4.94 0c-1.37-1.367-1.37-3.583 0-4.95a3.49 3.49 0 0 1 4.94 0zm-14.84-14.85c1.36 1.367 1.36 3.583 0 4.95a3.5 3.5 0 0 1-4.95 0c-1.37-1.367-1.37-3.583 0-4.95a3.5 3.5 0 0 1 4.95 0zm-14.85-14.85c1.36 1.367 1.36 3.583 0 4.95-1.37 1.366-3.6 1.366-4.95 0-1.37-1.367-1.37-3.583 0-4.95a3.5 3.5 0 0 1 4.95 0zm-14.85-14.85c1.36 1.366 1.36 3.582 0 4.95a3.5 3.5 0 0 1-4.95 0c-1.37-1.367-1.37-3.583 0-4.95a3.5 3.5 0 0 1 4.95 0zm-14.85-14.85c1.36 1.367 1.36 3.583 0 4.95a3.5 3.5 0 0 1-4.95 0c-1.37-1.367-1.37-3.583 0-4.95a3.5 3.5 0 0 1 4.95 0zm-14.85-14.85c1.37 1.367 1.37 3.583 0 4.95a3.5 3.5 0 0 1-4.95 0c-1.37-1.367-1.37-3.583 0-4.95a3.5 3.5 0 0 1 4.95 0zm-14.85-14.85c1.37 1.367 1.37 3.583 0 4.95a3.5 3.5 0 0 1-4.95 0c-1.37-1.367-1.37-3.583 0-4.95a3.5 3.5 0 0 1 4.95 0zm-14.85-14.85c1.37 1.366 1.37 3.582 0 4.95a3.5 3.5 0 0 1-4.95 0c-1.37-1.367-1.37-3.583 0-4.95a3.5 3.5 0 0 1 4.95 0zm-14.85-14.85a3.5 3.5 0 1 1-4.95 4.95 3.5 3.5 0 1 1 4.95-4.95zm-14.85-14.85c1.366 1.367 1.366 3.583 0 4.95a3.5 3.5 0 1 1 0-4.95zM1126.3 506.515c1.37 1.367 1.37 3.583 0 4.95a3.5 3.5 0 0 1-4.95 0c-1.36-1.367-1.36-3.583 0-4.95a3.5 3.5 0 0 1 4.95 0zm-14.85-14.85c1.37 1.367 1.37 3.583 0 4.95a3.49 3.49 0 0 1-4.94 0c-1.37-1.367-1.37-3.583 0-4.95a3.49 3.49 0 0 1 4.94 0zm-14.84-14.85c1.36 1.366 1.36 3.582 0 4.95a3.5 3.5 0 0 1-4.95 0c-1.37-1.367-1.37-3.583 0-4.95a3.5 3.5 0 0 1 4.95 0zm-14.85-14.85c1.36 1.367 1.36 3.583 0 4.95a3.5 3.5 0 0 1-4.95 0c-1.37-1.367-1.37-3.583 0-4.95a3.5 3.5 0 0 1 4.95 0zm-14.85-14.85c1.36 1.367 1.36 3.583 0 4.95a3.5 3.5 0 0 1-4.95 0c-1.37-1.367-1.37-3.583 0-4.95a3.5 3.5 0 0 1 4.95 0zm-14.85-14.85c1.36 1.367 1.36 3.583 0 4.95-1.37 1.366-3.6 1.366-4.95 0-1.37-1.367-1.37-3.583 0-4.95a3.5 3.5 0 0 1 4.95 0zm-14.85-14.85c1.37 1.366 1.37 3.582 0 4.95a3.5 3.5 0 0 1-4.95 0c-1.37-1.367-1.37-3.583 0-4.95a3.5 3.5 0 0 1 4.95 0zm-14.85-14.85c1.37 1.367 1.37 3.583 0 4.95a3.5 3.5 0 0 1-4.95 0c-1.37-1.367-1.37-3.583 0-4.95a3.5 3.5 0 0 1 4.95 0zm-14.85-14.85c1.37 1.367 1.37 3.583 0 4.95a3.5 3.5 0 0 1-4.95 0c-1.37-1.367-1.37-3.583 0-4.95a3.5 3.5 0 0 1 4.95 0zm-14.85-14.85a3.5 3.5 0 0 1 0 4.95c-1.367 1.366-3.583 1.366-4.95 0a3.5 3.5 0 1 1 4.95-4.95zm148.5 118.794c1.37 1.367 1.37 3.583 0 4.95-1.36 1.366-3.58 1.366-4.95 0-1.36-1.367-1.36-3.583 0-4.95a3.5 3.5 0 0 1 4.95 0zm-14.85-14.85c1.37 1.366 1.37 3.582 0 4.95a3.5 3.5 0 0 1-4.95 0c-1.36-1.367-1.36-3.583 0-4.95a3.5 3.5 0 0 1 4.95 0zm-14.85-14.85c1.37 1.367 1.37 3.583 0 4.95a3.49 3.49 0 0 1-4.94 0c-1.37-1.367-1.37-3.583 0-4.95a3.49 3.49 0 0 1 4.94 0zm-14.84-14.85c1.36 1.367 1.36 3.583 0 4.95a3.5 3.5 0 0 1-4.95 0c-1.37-1.367-1.37-3.583 0-4.95a3.5 3.5 0 0 1 4.95 0zm-14.85-14.85c1.36 1.367 1.36 3.583 0 4.95-1.37 1.366-3.6 1.366-4.95 0-1.37-1.367-1.37-3.583 0-4.95a3.5 3.5 0 0 1 4.95 0zm-14.85-14.85c1.36 1.366 1.36 3.582 0 4.95a3.5 3.5 0 0 1-4.95 0c-1.37-1.367-1.37-3.583 0-4.95a3.5 3.5 0 0 1 4.95 0zm-14.85-14.85c1.36 1.367 1.36 3.583 0 4.95a3.5 3.5 0 0 1-4.95 0c-1.37-1.367-1.37-3.583 0-4.95a3.5 3.5 0 0 1 4.95 0zm-14.85-14.85c1.37 1.367 1.37 3.583 0 4.95a3.5 3.5 0 0 1-4.95 0c-1.37-1.367-1.37-3.583 0-4.95a3.5 3.5 0 0 1 4.95 0zm-14.85-14.85c1.37 1.367 1.37 3.583 0 4.95a3.5 3.5 0 0 1-4.95 0c-1.37-1.367-1.37-3.583 0-4.95a3.5 3.5 0 0 1 4.95 0zm-14.85-14.85c1.37 1.366 1.37 3.583 0 4.95a3.5 3.5 0 0 1-4.95 0c-1.37-1.366-1.37-3.583 0-4.95a3.5 3.5 0 0 1 4.95 0zm133.64 103.944c1.37 1.367 1.37 3.583 0 4.95a3.5 3.5 0 0 1-4.95 0c-1.36-1.367-1.36-3.583 0-4.95a3.5 3.5 0 0 1 4.95 0zm-14.85-14.85c1.37 1.367 1.37 3.583 0 4.95a3.5 3.5 0 0 1-4.95 0c-1.36-1.367-1.36-3.583 0-4.95a3.5 3.5 0 0 1 4.95 0zm-14.85-14.85c1.37 1.367 1.37 3.583 0 4.95a3.49 3.49 0 0 1-4.94 0c-1.37-1.367-1.37-3.583 0-4.95a3.49 3.49 0 0 1 4.94 0zm-14.84-14.85c1.36 1.366 1.36 3.582 0 4.95a3.5 3.5 0 0 1-4.95 0c-1.37-1.367-1.37-3.583 0-4.95a3.5 3.5 0 0 1 4.95 0zm-14.85-14.85c1.36 1.367 1.36 3.583 0 4.95a3.5 3.5 0 0 1-4.95 0c-1.37-1.367-1.37-3.583 0-4.95a3.5 3.5 0 0 1 4.95 0zm-14.85-14.85c1.36 1.367 1.36 3.583 0 4.95a3.5 3.5 0 0 1-4.95 0c-1.37-1.367-1.37-3.583 0-4.95a3.5 3.5 0 0 1 4.95 0zm-14.85-14.85c1.36 1.367 1.36 3.583 0 4.95-1.37 1.366-3.6 1.366-4.95 0-1.37-1.367-1.37-3.583 0-4.95a3.5 3.5 0 0 1 4.95 0zm-14.85-14.85c1.37 1.366 1.37 3.583 0 4.95a3.5 3.5 0 0 1-4.95 0c-1.37-1.366-1.37-3.583 0-4.95a3.5 3.5 0 0 1 4.95 0zm103.94 74.246c1.37 1.367 1.37 3.583 0 4.95-1.36 1.366-3.58 1.366-4.95 0-1.36-1.367-1.36-3.583 0-4.95a3.5 3.5 0 0 1 4.95 0zm-14.85-14.85c1.37 1.366 1.37 3.582 0 4.95a3.5 3.5 0 0 1-4.95 0c-1.36-1.367-1.36-3.583 0-4.95a3.5 3.5 0 0 1 4.95 0zm-14.85-14.85c1.37 1.367 1.37 3.583 0 4.95a3.49 3.49 0 0 1-4.94 0c-1.37-1.367-1.37-3.583 0-4.95a3.49 3.49 0 0 1 4.94 0zm-14.84-14.85c1.36 1.367 1.36 3.583 0 4.95a3.5 3.5 0 0 1-4.95 0c-1.37-1.367-1.37-3.583 0-4.95a3.5 3.5 0 0 1 4.95 0zm-14.85-14.85c1.36 1.367 1.36 3.583 0 4.95-1.37 1.366-3.6 1.366-4.95 0-1.37-1.367-1.37-3.583 0-4.95a3.5 3.5 0 0 1 4.95 0zM1066.9 358c1.36 1.366 1.36 3.583 0 4.95a3.5 3.5 0 0 1-4.95 0c-1.37-1.366-1.37-3.583 0-4.95a3.5 3.5 0 0 1 4.95 0zm74.24 44.547c1.37 1.367 1.37 3.583 0 4.95a3.5 3.5 0 0 1-4.95 0c-1.36-1.367-1.36-3.583 0-4.95a3.5 3.5 0 0 1 4.95 0zm-14.85-14.85c1.37 1.367 1.37 3.583 0 4.95a3.5 3.5 0 0 1-4.95 0c-1.36-1.367-1.36-3.583 0-4.95a3.5 3.5 0 0 1 4.95 0zm-14.85-14.85c1.37 1.367 1.37 3.583 0 4.95a3.49 3.49 0 0 1-4.94 0c-1.37-1.367-1.37-3.583 0-4.95a3.49 3.49 0 0 1 4.94 0zm-14.84-14.85c1.36 1.366 1.36 3.583 0 4.95a3.5 3.5 0 0 1-4.95 0c-1.37-1.366-1.37-3.583 0-4.95a3.5 3.5 0 0 1 4.95 0zm-560 374.228a3.5 3.5 0 0 1 4.949 4.949 3.5 3.5 0 0 1-4.949-4.949zm0 29.698a3.5 3.5 0 0 1 4.949 4.95 3.5 3.5 0 0 1-4.949-4.95zm-14.85-44.548c1.367-1.366 3.583-1.366 4.95 0a3.5 3.5 0 1 1-4.95 0zm0 29.7a3.5 3.5 0 1 1 4.95 4.95c-1.367 1.366-3.583 1.366-4.95 0a3.5 3.5 0 0 1 0-4.95zm0 29.698c1.367-1.366 3.583-1.366 4.95 0a3.5 3.5 0 1 1-4.95 0zm-14.85-74.246a3.5 3.5 0 1 1 4.95 4.95 3.5 3.5 0 1 1-4.95-4.95zm0 29.7a3.5 3.5 0 0 1 4.95 4.949 3.5 3.5 0 0 1-4.95-4.949zm0 29.698a3.5 3.5 0 1 1 4.95 4.95 3.5 3.5 0 1 1-4.95-4.95zm0 29.7a3.5 3.5 0 0 1 4.95 4.949 3.5 3.5 0 0 1-4.95-4.949zm-14.85-74.247c1.367-1.366 3.583-1.366 4.95 0a3.5 3.5 0 1 1-4.95 0zm0 29.7a3.5 3.5 0 0 1 4.95 0c1.366 1.367 1.366 3.583 0 4.95a3.5 3.5 0 1 1-4.95-4.95zm0 29.698c1.367-1.366 3.583-1.366 4.95 0a3.5 3.5 0 1 1-4.95 0zm-14.85-74.246a3.5 3.5 0 0 1 4.949 4.95 3.5 3.5 0 0 1-4.949-4.95zm0 29.7a3.5 3.5 0 0 1 4.949 4.949 3.5 3.5 0 0 1-4.949-4.949zm0 29.698a3.5 3.5 0 0 1 4.949 4.95 3.5 3.5 0 0 1-4.949-4.95zm0 29.7a3.5 3.5 0 0 1 4.949 4.949 3.5 3.5 0 0 1-4.949-4.949zm-14.85-74.247c1.367-1.366 3.583-1.366 4.95 0a3.5 3.5 0 1 1-4.95 4.95c-1.366-1.367-1.366-3.583 0-4.95zm0 29.7a3.5 3.5 0 1 1 4.95 4.95c-1.367 1.366-3.583 1.366-4.95 0a3.5 3.5 0 0 1 0-4.95zm0 29.698c1.367-1.366 3.583-1.366 4.95 0a3.5 3.5 0 1 1-4.95 4.95c-1.366-1.367-1.366-3.583 0-4.95zm-14.753-14.85a3.5 3.5 0 0 1 4.949 4.95 3.5 3.5 0 0 1-4.949-4.95zm0-29.698a3.5 3.5 0 0 1 4.949 4.949 3.5 3.5 0 0 1-4.949-4.949zm-14.85-14.85c1.367-1.366 3.583-1.366 4.95 0a3.5 3.5 0 1 1-4.95 0zm0 29.7a3.5 3.5 0 1 1 4.95 4.95c-1.367 1.366-3.583 1.366-4.95 0a3.5 3.5 0 0 1 0-4.95zm0 29.698c1.367-1.366 3.583-1.366 4.95 0a3.5 3.5 0 1 1-4.95 0zm-14.85-74.246a3.5 3.5 0 1 1 4.95 4.95 3.5 3.5 0 1 1-4.95-4.95zm0 29.7a3.5 3.5 0 0 1 4.95 4.949 3.5 3.5 0 0 1-4.95-4.949zm0 29.698a3.5 3.5 0 1 1 4.95 4.95 3.5 3.5 0 1 1-4.95-4.95zm0 29.7a3.5 3.5 0 0 1 4.95 4.949 3.5 3.5 0 0 1-4.95-4.949zm-14.85-74.247c1.367-1.366 3.583-1.366 4.95 0a3.5 3.5 0 1 1-4.95 0zm0 29.7a3.5 3.5 0 0 1 4.95 0c1.366 1.367 1.366 3.583 0 4.95a3.5 3.5 0 1 1-4.95-4.95zm0 29.698c1.367-1.366 3.583-1.366 4.95 0a3.5 3.5 0 1 1-4.95 0zm-14.85-74.246a3.5 3.5 0 0 1 4.949 4.95 3.5 3.5 0 0 1-4.949-4.95zm0 29.7a3.5 3.5 0 0 1 4.949 4.949 3.5 3.5 0 0 1-4.949-4.949zm0 29.698a3.5 3.5 0 0 1 4.949 4.95 3.5 3.5 0 0 1-4.949-4.95zm0 29.7a3.5 3.5 0 0 1 4.949 4.949 3.5 3.5 0 0 1-4.949-4.949zm-14.85-74.247c1.367-1.366 3.583-1.366 4.95 0a3.5 3.5 0 1 1-4.95 4.95c-1.366-1.367-1.366-3.583 0-4.95zm0 29.7a3.5 3.5 0 1 1 4.95 4.95c-1.367 1.366-3.583 1.366-4.95 0a3.5 3.5 0 0 1 0-4.95zm0 29.698c1.367-1.366 3.583-1.366 4.95 0a3.5 3.5 0 1 1-4.95 4.95c-1.366-1.367-1.366-3.583 0-4.95zm-14.85-14.85a3.5 3.5 0 1 1 4.95 4.95 3.5 3.5 0 1 1-4.95-4.95zm0-29.698a3.5 3.5 0 0 1 4.95 4.949 3.5 3.5 0 0 1-4.95-4.949z"/></svg>