<svg xmlns="http://www.w3.org/2000/svg" width="1200" height="900" fill="#fff" xmlns:v="https://vecta.io/nano"><path d="M393.322 222.015c1.366 1.367 1.366 3.583 0 4.95a3.5 3.5 0 1 1 0-4.95zm-14.85-14.85a3.5 3.5 0 0 1-4.949 4.95 3.5 3.5 0 0 1 4.949-4.95zm44.548 14.85a3.5 3.5 0 1 1-4.95 4.95 3.5 3.5 0 1 1 4.95-4.95zm-14.85-14.85a3.5 3.5 0 0 1 0 4.95c-1.367 1.366-3.583 1.366-4.95 0a3.5 3.5 0 1 1 4.95-4.95zm-14.85-14.85a3.5 3.5 0 0 1-4.95 4.949 3.5 3.5 0 0 1 4.95-4.949zm-14.85-14.85a3.5 3.5 0 0 1-4.949 4.95 3.5 3.5 0 0 1 4.949-4.95zm59.397 29.7a3.5 3.5 0 0 1-4.949 4.95 3.5 3.5 0 0 1 4.949-4.95zm-14.85-14.85a3.5 3.5 0 0 1-4.95 4.949 3.5 3.5 0 0 1 4.95-4.949zm-14.85-14.85a3.5 3.5 0 1 1-4.95 4.95 3.5 3.5 0 1 1 4.95-4.95zm-14.85-14.85c1.366 1.367 1.366 3.583 0 4.95a3.5 3.5 0 1 1 0-4.95zm89.095 59.397a3.5 3.5 0 1 1-4.95 4.95 3.5 3.5 0 1 1 4.95-4.95zm-14.85-14.85a3.5 3.5 0 0 1 0 4.95c-1.367 1.366-3.583 1.366-4.95 0a3.5 3.5 0 1 1 4.95-4.95zm-14.85-14.85a3.5 3.5 0 0 1-4.95 4.949 3.5 3.5 0 0 1 4.95-4.949zm-14.85-14.85a3.5 3.5 0 0 1-4.949 4.95 3.5 3.5 0 0 1 4.949-4.95zm-14.85-14.85a3.5 3.5 0 1 1-4.95 4.95 3.5 3.5 0 1 1 4.95-4.95zm-14.85-14.85a3.5 3.5 0 0 1 0 4.95c-1.367 1.366-3.583 1.366-4.95 0a3.5 3.5 0 1 1 4.95-4.95zm-14.85-14.85a3.5 3.5 0 0 1-4.95 4.949 3.5 3.5 0 0 1 4.95-4.949zm-14.85-14.85a3.5 3.5 0 0 1-4.949 4.95 3.5 3.5 0 0 1 4.949-4.95zm133.643 103.945a3.5 3.5 0 0 1-4.949 4.95 3.5 3.5 0 0 1 4.949-4.95zm-14.85-14.85a3.5 3.5 0 0 1 0 4.95c-1.367 1.366-3.583 1.366-4.95 0a3.5 3.5 0 1 1 4.95-4.95zm-14.85-14.85a3.5 3.5 0 0 1-4.95 4.949 3.5 3.5 0 0 1 4.95-4.949zm-14.85-14.85a3.5 3.5 0 1 1-4.95 4.95 3.5 3.5 0 1 1 4.95-4.95zM423.02 132.92a3.5 3.5 0 0 1-4.95 4.949 3.5 3.5 0 0 1 4.95-4.949zm-14.85-14.85a3.5 3.5 0 1 1-4.95 0c1.367-1.366 3.583-1.366 4.95 0zm-14.85-14.85c1.366 1.367 1.366 3.583 0 4.95a3.5 3.5 0 1 1 0-4.95zm-14.85-14.85a3.5 3.5 0 0 1-4.949 4.95 3.5 3.5 0 0 1 4.949-4.95zm148.493 118.794a3.5 3.5 0 0 1 0 4.95c-1.367 1.366-3.583 1.366-4.95 0a3.5 3.5 0 1 1 4.95-4.95zm-14.85-14.85a3.5 3.5 0 0 1-4.949 4.949 3.5 3.5 0 0 1 4.949-4.949zm-14.85-14.85a3.5 3.5 0 1 1-4.95 4.95c-1.366-1.367-1.366-3.583 0-4.95a3.5 3.5 0 0 1 4.95 0zm-14.85-14.85a3.5 3.5 0 1 1-4.95 4.95 3.5 3.5 0 1 1 4.95-4.95zM437.87 118.07a3.5 3.5 0 0 1-4.949 4.95 3.5 3.5 0 0 1 4.949-4.95zm-14.85-14.85a3.5 3.5 0 1 1-4.95 4.95 3.5 3.5 0 1 1 4.95-4.95zm-14.85-14.85a3.5 3.5 0 1 1-4.95 4.95 3.5 3.5 0 1 1 4.95-4.95zm-14.85-14.85c1.366 1.367 1.366 3.583 0 4.95a3.5 3.5 0 1 1 0-4.95zm133.643 103.944a3.5 3.5 0 1 1-4.95 4.95 3.5 3.5 0 1 1 4.95-4.95zm-14.85-14.85a3.5 3.5 0 0 1-4.949 4.95 3.5 3.5 0 0 1 4.949-4.95zm-14.85-14.85a3.5 3.5 0 0 1 0 4.95c-1.367 1.366-3.583 1.366-4.95 0a3.5 3.5 0 1 1 4.95-4.95zm-14.85-14.85a3.5 3.5 0 0 1-4.95 4.949 3.5 3.5 0 0 1 4.95-4.949zm-14.85-14.85a3.5 3.5 0 1 1-4.95 0c1.367-1.366 3.583-1.366 4.95 0zm-14.85-14.85c1.366 1.367 1.366 3.583 0 4.95a3.5 3.5 0 1 1 0-4.95zm-14.85-14.85a3.5 3.5 0 0 1-4.949 4.95 3.5 3.5 0 0 1 4.949-4.95zm-14.85-14.85a3.5 3.5 0 1 1-4.95 4.95 3.5 3.5 0 1 1 4.95-4.95zm89.095 59.397a3.5 3.5 0 0 1-4.949 4.949 3.5 3.5 0 0 1 4.949-4.949zm-14.85-14.85a3.5 3.5 0 1 1-4.95 4.95c-1.366-1.367-1.366-3.583 0-4.95a3.5 3.5 0 0 1 4.95 0zm-14.85-14.85a3.5 3.5 0 1 1-4.95 4.95 3.5 3.5 0 1 1 4.95-4.95zm-14.85-14.85a3.5 3.5 0 1 1-4.95 4.95 3.5 3.5 0 1 1 4.95-4.95zm59.397 29.698a3.5 3.5 0 1 1-4.95 0c1.367-1.366 3.583-1.366 4.95 0zm-14.85-14.85a3.5 3.5 0 0 1-4.949 4.95 3.5 3.5 0 0 1 4.949-4.95zm-14.85-14.85a3.5 3.5 0 1 1-4.95 4.95 3.5 3.5 0 1 1 4.95-4.95zm-14.85-14.85a3.5 3.5 0 1 1-4.95 4.95 3.5 3.5 0 1 1 4.95-4.95zm44.548 14.85a3.5 3.5 0 1 1-4.95 4.95 3.5 3.5 0 1 1 4.95-4.95zm-14.85-14.85a3.5 3.5 0 0 1-4.949 4.95 3.5 3.5 0 0 1 4.949-4.95zm24.517 658.715a3.5 3.5 0 0 1 4.949 4.949 3.5 3.5 0 0 1-4.949-4.949zm0 29.698a3.5 3.5 0 0 1 4.949 4.95 3.5 3.5 0 0 1-4.949-4.95zm-14.85-44.548c1.367-1.366 3.583-1.366 4.95 0a3.5 3.5 0 1 1-4.95 0zm0 29.7a3.5 3.5 0 1 1 4.95 4.95c-1.367 1.366-3.583 1.366-4.95 0a3.5 3.5 0 0 1 0-4.95zm0 29.698c1.367-1.366 3.583-1.366 4.95 0a3.5 3.5 0 1 1-4.95 0zm-14.85-74.246a3.5 3.5 0 1 1 4.95 4.95 3.5 3.5 0 1 1-4.95-4.95zm0 29.7a3.5 3.5 0 0 1 4.95 4.949 3.5 3.5 0 0 1-4.95-4.949zm0 29.698a3.5 3.5 0 1 1 4.95 4.95 3.5 3.5 0 1 1-4.95-4.95zm0 29.7a3.5 3.5 0 0 1 4.95 4.949 3.5 3.5 0 0 1-4.95-4.949zm-14.85-74.247c1.367-1.366 3.583-1.366 4.95 0a3.5 3.5 0 1 1-4.95 0zm0 29.7a3.5 3.5 0 0 1 4.95 0c1.366 1.367 1.366 3.583 0 4.95a3.5 3.5 0 1 1-4.95-4.95zm0 29.698c1.367-1.366 3.583-1.366 4.95 0a3.5 3.5 0 1 1-4.95 0zm-14.85-74.246a3.5 3.5 0 0 1 4.949 4.95 3.5 3.5 0 0 1-4.949-4.95zm0 29.7a3.5 3.5 0 0 1 4.949 4.949 3.5 3.5 0 0 1-4.949-4.949zm0 29.698a3.5 3.5 0 0 1 4.949 4.95 3.5 3.5 0 0 1-4.949-4.95zm0 29.7a3.5 3.5 0 0 1 4.949 4.949 3.5 3.5 0 0 1-4.949-4.949zm-14.85-74.247c1.367-1.366 3.583-1.366 4.95 0a3.5 3.5 0 1 1-4.95 4.95c-1.366-1.367-1.366-3.583 0-4.95zm0 29.7a3.5 3.5 0 1 1 4.95 4.95c-1.367 1.366-3.583 1.366-4.95 0a3.5 3.5 0 0 1 0-4.95zm0 29.698c1.367-1.366 3.583-1.366 4.95 0a3.5 3.5 0 1 1-4.95 4.95c-1.366-1.367-1.366-3.583 0-4.95zm-14.753-14.85a3.5 3.5 0 0 1 4.949 4.95 3.5 3.5 0 0 1-4.949-4.95zm0-29.698a3.5 3.5 0 0 1 4.949 4.949 3.5 3.5 0 0 1-4.949-4.949zm-14.85-14.85c1.367-1.366 3.583-1.366 4.95 0a3.5 3.5 0 1 1-4.95 0zm0 29.7a3.5 3.5 0 1 1 4.95 4.95c-1.367 1.366-3.583 1.366-4.95 0a3.5 3.5 0 0 1 0-4.95zm0 29.698c1.367-1.366 3.583-1.366 4.95 0a3.5 3.5 0 1 1-4.95 0zm-14.85-74.246a3.5 3.5 0 1 1 4.95 4.95 3.5 3.5 0 1 1-4.95-4.95zm0 29.7a3.5 3.5 0 0 1 4.95 4.949 3.5 3.5 0 0 1-4.95-4.949zm0 29.698a3.5 3.5 0 1 1 4.95 4.95 3.5 3.5 0 1 1-4.95-4.95zm0 29.7a3.5 3.5 0 0 1 4.95 4.949 3.5 3.5 0 0 1-4.95-4.949zm-14.85-74.247c1.367-1.366 3.583-1.366 4.95 0a3.5 3.5 0 1 1-4.95 0zm0 29.7a3.5 3.5 0 0 1 4.95 0c1.366 1.367 1.366 3.583 0 4.95a3.5 3.5 0 1 1-4.95-4.95zm0 29.698c1.367-1.366 3.583-1.366 4.95 0a3.5 3.5 0 1 1-4.95 0zm-14.85-74.246a3.5 3.5 0 0 1 4.949 4.95 3.5 3.5 0 0 1-4.949-4.95zm0 29.7a3.5 3.5 0 0 1 4.949 4.949 3.5 3.5 0 0 1-4.949-4.949zm0 29.698a3.5 3.5 0 0 1 4.949 4.95 3.5 3.5 0 0 1-4.949-4.95zm0 29.7a3.5 3.5 0 0 1 4.949 4.949 3.5 3.5 0 0 1-4.949-4.949zm-14.85-74.247c1.367-1.366 3.583-1.366 4.95 0a3.5 3.5 0 1 1-4.95 4.95c-1.366-1.367-1.366-3.583 0-4.95zm0 29.7a3.5 3.5 0 1 1 4.95 4.95c-1.367 1.366-3.583 1.366-4.95 0a3.5 3.5 0 0 1 0-4.95zm0 29.698c1.367-1.366 3.583-1.366 4.95 0a3.5 3.5 0 1 1-4.95 4.95c-1.366-1.367-1.366-3.583 0-4.95zm-14.85-14.85a3.5 3.5 0 1 1 4.95 4.95 3.5 3.5 0 1 1-4.95-4.95zm0-29.698a3.5 3.5 0 0 1 4.95 4.949 3.5 3.5 0 0 1-4.95-4.949z"/></svg>