<svg width="1200" height="900" viewBox="0 0 1200 900" fill="none" xmlns="http://www.w3.org/2000/svg">
<path d="M393.322 222.015C394.688 223.382 394.688 225.598 393.322 226.965C391.955 228.332 389.739 228.332 388.372 226.965C387.005 225.598 387.005 223.382 388.372 222.015C389.739 220.648 391.955 220.648 393.322 222.015ZM378.472 207.166C379.839 208.533 379.839 210.749 378.472 212.116C377.105 213.482 374.889 213.482 373.523 212.116C372.156 210.749 372.156 208.533 373.523 207.166C374.889 205.799 377.105 205.799 378.472 207.166ZM423.02 222.015C424.387 223.382 424.387 225.598 423.02 226.965C421.653 228.332 419.437 228.332 418.07 226.965C416.703 225.598 416.703 223.382 418.07 222.015C419.437 220.648 421.653 220.648 423.02 222.015ZM408.171 207.166C409.538 208.533 409.538 210.749 408.171 212.116C406.804 213.482 404.588 213.482 403.221 212.116C401.854 210.749 401.854 208.533 403.221 207.166C404.588 205.799 406.804 205.799 408.171 207.166ZM393.322 192.317C394.688 193.683 394.688 195.899 393.322 197.266C391.955 198.633 389.739 198.633 388.372 197.266C387.005 195.899 387.005 193.683 388.372 192.317C389.739 190.95 391.955 190.95 393.322 192.317ZM378.472 177.467C379.839 178.834 379.839 181.05 378.472 182.417C377.105 183.784 374.889 183.784 373.523 182.417C372.156 181.05 372.156 178.834 373.523 177.467C374.889 176.1 377.105 176.1 378.472 177.467ZM437.869 207.166C439.236 208.533 439.236 210.749 437.869 212.116C436.502 213.482 434.286 213.482 432.92 212.116C431.553 210.749 431.553 208.533 432.92 207.166C434.286 205.799 436.502 205.799 437.869 207.166ZM423.02 192.317C424.387 193.683 424.387 195.899 423.02 197.266C421.653 198.633 419.437 198.633 418.07 197.266C416.703 195.899 416.703 193.683 418.07 192.317C419.437 190.95 421.653 190.95 423.02 192.317ZM408.171 177.467C409.538 178.834 409.538 181.05 408.171 182.417C406.804 183.784 404.588 183.784 403.221 182.417C401.854 181.05 401.854 178.834 403.221 177.467C404.588 176.1 406.804 176.1 408.171 177.467ZM393.322 162.618C394.688 163.985 394.688 166.201 393.322 167.568C391.955 168.935 389.739 168.935 388.372 167.568C387.005 166.201 387.005 163.985 388.372 162.618C389.739 161.251 391.955 161.251 393.322 162.618ZM482.417 222.015C483.784 223.382 483.784 225.598 482.417 226.965C481.05 228.332 478.834 228.332 477.467 226.965C476.1 225.598 476.1 223.382 477.467 222.015C478.834 220.648 481.05 220.648 482.417 222.015ZM467.568 207.166C468.935 208.533 468.935 210.749 467.568 212.116C466.201 213.482 463.985 213.482 462.618 212.116C461.251 210.749 461.251 208.533 462.618 207.166C463.985 205.799 466.201 205.799 467.568 207.166ZM452.719 192.317C454.085 193.683 454.085 195.899 452.719 197.266C451.352 198.633 449.136 198.633 447.769 197.266C446.402 195.899 446.402 193.683 447.769 192.317C449.136 190.95 451.352 190.95 452.719 192.317ZM437.869 177.467C439.236 178.834 439.236 181.05 437.869 182.417C436.502 183.784 434.286 183.784 432.92 182.417C431.553 181.05 431.553 178.834 432.92 177.467C434.286 176.1 436.502 176.1 437.869 177.467ZM423.02 162.618C424.387 163.985 424.387 166.201 423.02 167.568C421.653 168.935 419.437 168.935 418.07 167.568C416.703 166.201 416.703 163.985 418.07 162.618C419.437 161.251 421.653 161.251 423.02 162.618ZM408.171 147.769C409.538 149.136 409.538 151.352 408.171 152.719C406.804 154.085 404.588 154.085 403.221 152.719C401.854 151.352 401.854 149.136 403.221 147.769C404.588 146.402 406.804 146.402 408.171 147.769ZM393.322 132.92C394.688 134.286 394.688 136.503 393.322 137.869C391.955 139.236 389.739 139.236 388.372 137.869C387.005 136.503 387.005 134.286 388.372 132.92C389.739 131.553 391.955 131.553 393.322 132.92ZM378.472 118.07C379.839 119.437 379.839 121.653 378.472 123.02C377.105 124.387 374.889 124.387 373.523 123.02C372.156 121.653 372.156 119.437 373.523 118.07C374.889 116.704 377.105 116.704 378.472 118.07ZM512.115 222.015C513.482 223.382 513.482 225.598 512.115 226.965C510.749 228.332 508.533 228.332 507.166 226.965C505.799 225.598 505.799 223.382 507.166 222.015C508.533 220.648 510.749 220.648 512.115 222.015ZM497.266 207.166C498.633 208.533 498.633 210.749 497.266 212.116C495.899 213.482 493.683 213.482 492.316 212.116C490.95 210.749 490.95 208.533 492.316 207.166C493.683 205.799 495.899 205.799 497.266 207.166ZM482.417 192.317C483.784 193.683 483.784 195.899 482.417 197.266C481.05 198.633 478.834 198.633 477.467 197.266C476.1 195.899 476.1 193.683 477.467 192.317C478.834 190.95 481.05 190.95 482.417 192.317ZM467.568 177.467C468.935 178.834 468.935 181.05 467.568 182.417C466.201 183.784 463.985 183.784 462.618 182.417C461.251 181.05 461.251 178.834 462.618 177.467C463.985 176.1 466.201 176.1 467.568 177.467ZM423.02 132.92C424.387 134.286 424.387 136.503 423.02 137.869C421.653 139.236 419.437 139.236 418.07 137.869C416.703 136.503 416.703 134.286 418.07 132.92C419.437 131.553 421.653 131.553 423.02 132.92ZM408.171 118.07C409.538 119.437 409.538 121.653 408.171 123.02C406.804 124.387 404.588 124.387 403.221 123.02C401.854 121.653 401.854 119.437 403.221 118.07C404.588 116.704 406.804 116.704 408.171 118.07ZM393.322 103.221C394.688 104.588 394.688 106.804 393.322 108.171C391.955 109.538 389.739 109.538 388.372 108.171C387.005 106.804 387.005 104.588 388.372 103.221C389.739 101.854 391.955 101.854 393.322 103.221ZM378.472 88.3719C379.839 89.7387 379.839 91.9548 378.472 93.3216C377.105 94.6885 374.889 94.6885 373.523 93.3216C372.156 91.9548 372.156 89.7387 373.523 88.3719C374.889 87.005 377.105 87.005 378.472 88.3719ZM526.965 207.166C528.332 208.533 528.332 210.749 526.965 212.116C525.598 213.482 523.382 213.482 522.015 212.116C520.648 210.749 520.648 208.533 522.015 207.166C523.382 205.799 525.598 205.799 526.965 207.166ZM512.115 192.317C513.482 193.683 513.482 195.899 512.115 197.266C510.749 198.633 508.533 198.633 507.166 197.266C505.799 195.899 505.799 193.683 507.166 192.317C508.533 190.95 510.749 190.95 512.115 192.317ZM497.266 177.467C498.633 178.834 498.633 181.05 497.266 182.417C495.899 183.784 493.683 183.784 492.316 182.417C490.95 181.05 490.95 178.834 492.316 177.467C493.683 176.1 495.899 176.1 497.266 177.467ZM482.417 162.618C483.784 163.985 483.784 166.201 482.417 167.568C481.05 168.935 478.834 168.935 477.467 167.568C476.1 166.201 476.1 163.985 477.467 162.618C478.834 161.251 481.05 161.251 482.417 162.618ZM437.869 118.07C439.236 119.437 439.236 121.653 437.869 123.02C436.502 124.387 434.286 124.387 432.92 123.02C431.553 121.653 431.553 119.437 432.92 118.07C434.286 116.704 436.502 116.704 437.869 118.07ZM423.02 103.221C424.387 104.588 424.387 106.804 423.02 108.171C421.653 109.538 419.437 109.538 418.07 108.171C416.703 106.804 416.703 104.588 418.07 103.221C419.437 101.854 421.653 101.854 423.02 103.221ZM408.171 88.3719C409.538 89.7387 409.538 91.9548 408.171 93.3216C406.804 94.6885 404.588 94.6885 403.221 93.3216C401.854 91.9548 401.854 89.7387 403.221 88.3719C404.588 87.005 406.804 87.005 408.171 88.3719ZM393.322 73.5226C394.688 74.8895 394.688 77.1055 393.322 78.4724C391.955 79.8392 389.739 79.8392 388.372 78.4724C387.005 77.1055 387.005 74.8895 388.372 73.5226C389.739 72.1558 391.955 72.1558 393.322 73.5226ZM526.965 177.467C528.332 178.834 528.332 181.05 526.965 182.417C525.598 183.784 523.382 183.784 522.015 182.417C520.648 181.05 520.648 178.834 522.015 177.467C523.382 176.1 525.598 176.1 526.965 177.467ZM512.115 162.618C513.482 163.985 513.482 166.201 512.115 167.568C510.749 168.935 508.533 168.935 507.166 167.568C505.799 166.201 505.799 163.985 507.166 162.618C508.533 161.251 510.749 161.251 512.115 162.618ZM497.266 147.769C498.633 149.136 498.633 151.352 497.266 152.719C495.899 154.085 493.683 154.085 492.316 152.719C490.95 151.352 490.95 149.136 492.316 147.769C493.683 146.402 495.899 146.402 497.266 147.769ZM482.417 132.92C483.784 134.286 483.784 136.503 482.417 137.869C481.05 139.236 478.834 139.236 477.467 137.869C476.1 136.503 476.1 134.286 477.467 132.92C478.834 131.553 481.05 131.553 482.417 132.92ZM467.568 118.07C468.935 119.437 468.935 121.653 467.568 123.02C466.201 124.387 463.985 124.387 462.618 123.02C461.251 121.653 461.251 119.437 462.618 118.07C463.985 116.704 466.201 116.704 467.568 118.07ZM452.719 103.221C454.085 104.588 454.085 106.804 452.719 108.171C451.352 109.538 449.136 109.538 447.769 108.171C446.402 106.804 446.402 104.588 447.769 103.221C449.136 101.854 451.352 101.854 452.719 103.221ZM437.869 88.3719C439.236 89.7387 439.236 91.9548 437.869 93.3216C436.502 94.6885 434.286 94.6885 432.92 93.3216C431.553 91.9548 431.553 89.7387 432.92 88.3719C434.286 87.005 436.502 87.005 437.869 88.3719ZM423.02 73.5226C424.387 74.8895 424.387 77.1055 423.02 78.4724C421.653 79.8392 419.437 79.8392 418.07 78.4724C416.703 77.1055 416.703 74.8895 418.07 73.5226C419.437 72.1558 421.653 72.1558 423.02 73.5226ZM512.115 132.92C513.482 134.286 513.482 136.503 512.115 137.869C510.749 139.236 508.533 139.236 507.166 137.869C505.799 136.503 505.799 134.286 507.166 132.92C508.533 131.553 510.749 131.553 512.115 132.92ZM497.266 118.07C498.633 119.437 498.633 121.653 497.266 123.02C495.899 124.387 493.683 124.387 492.316 123.02C490.95 121.653 490.95 119.437 492.316 118.07C493.683 116.704 495.899 116.704 497.266 118.07ZM482.417 103.221C483.784 104.588 483.784 106.804 482.417 108.171C481.05 109.538 478.834 109.538 477.467 108.171C476.1 106.804 476.1 104.588 477.467 103.221C478.834 101.854 481.05 101.854 482.417 103.221ZM467.568 88.3719C468.935 89.7387 468.935 91.9548 467.568 93.3216C466.201 94.6885 463.985 94.6885 462.618 93.3216C461.251 91.9548 461.251 89.7387 462.618 88.3719C463.985 87.005 466.201 87.005 467.568 88.3719ZM526.965 118.07C528.332 119.437 528.332 121.653 526.965 123.02C525.598 124.387 523.382 124.387 522.015 123.02C520.648 121.653 520.648 119.437 522.015 118.07C523.382 116.704 525.598 116.704 526.965 118.07ZM512.115 103.221C513.482 104.588 513.482 106.804 512.115 108.171C510.749 109.538 508.533 109.538 507.166 108.171C505.799 106.804 505.799 104.588 507.166 103.221C508.533 101.854 510.749 101.854 512.115 103.221ZM497.266 88.3719C498.633 89.7387 498.633 91.9548 497.266 93.3216C495.899 94.6885 493.683 94.6885 492.316 93.3216C490.95 91.9548 490.95 89.7387 492.316 88.3719C493.683 87.005 495.899 87.005 497.266 88.3719ZM482.417 73.5226C483.784 74.8895 483.784 77.1055 482.417 78.4724C481.05 79.8392 478.834 79.8392 477.467 78.4724C476.1 77.1055 476.1 74.8895 477.467 73.5226C478.834 72.1558 481.05 72.1558 482.417 73.5226ZM526.965 88.3719C528.332 89.7387 528.332 91.9548 526.965 93.3216C525.598 94.6885 523.382 94.6885 522.015 93.3216C520.648 91.9548 520.648 89.7387 522.015 88.3719C523.382 87.005 525.598 87.005 526.965 88.3719ZM512.115 73.5226C513.482 74.8895 513.482 77.1055 512.115 78.4724C510.749 79.8392 508.533 79.8392 507.166 78.4724C505.799 77.1055 505.799 74.8895 507.166 73.5226C508.533 72.1558 510.749 72.1558 512.115 73.5226Z" fill="#D6E1EF"/>
<path d="M1136.62 132.224C1137.99 130.857 1140.2 130.857 1141.57 132.224C1142.94 133.59 1142.94 135.807 1141.57 137.173C1140.2 138.54 1137.99 138.54 1136.62 137.173C1135.25 135.807 1135.25 133.59 1136.62 132.224ZM1136.62 161.922C1137.99 160.555 1140.2 160.555 1141.57 161.922C1142.94 163.289 1142.94 165.505 1141.57 166.872C1140.2 168.239 1137.99 168.239 1136.62 166.872C1135.25 165.505 1135.25 163.289 1136.62 161.922ZM1121.77 117.374C1123.14 116.008 1125.35 116.008 1126.72 117.374C1128.09 118.741 1128.09 120.957 1126.72 122.324C1125.35 123.691 1123.14 123.691 1121.77 122.324C1120.4 120.957 1120.4 118.741 1121.77 117.374ZM1121.77 147.073C1123.14 145.706 1125.35 145.706 1126.72 147.073C1128.09 148.44 1128.09 150.656 1126.72 152.023C1125.35 153.389 1123.14 153.389 1121.77 152.023C1120.4 150.656 1120.4 148.44 1121.77 147.073ZM1121.77 176.771C1123.14 175.405 1125.35 175.405 1126.72 176.771C1128.09 178.138 1128.09 180.354 1126.72 181.721C1125.35 183.088 1123.14 183.088 1121.77 181.721C1120.4 180.354 1120.4 178.138 1121.77 176.771ZM1106.92 102.525C1108.29 101.158 1110.51 101.158 1111.87 102.525C1113.24 103.892 1113.24 106.108 1111.87 107.475C1110.51 108.842 1108.29 108.842 1106.92 107.475C1105.56 106.108 1105.56 103.892 1106.92 102.525ZM1106.92 132.224C1108.29 130.857 1110.51 130.857 1111.87 132.224C1113.24 133.59 1113.24 135.807 1111.87 137.173C1110.51 138.54 1108.29 138.54 1106.92 137.173C1105.56 135.807 1105.56 133.59 1106.92 132.224ZM1106.92 161.922C1108.29 160.555 1110.51 160.555 1111.87 161.922C1113.24 163.289 1113.24 165.505 1111.87 166.872C1110.51 168.239 1108.29 168.239 1106.92 166.872C1105.56 165.505 1105.56 163.289 1106.92 161.922ZM1106.92 191.621C1108.29 190.254 1110.51 190.254 1111.87 191.621C1113.24 192.987 1113.24 195.203 1111.87 196.57C1110.51 197.937 1108.29 197.937 1106.92 196.57C1105.56 195.203 1105.56 192.987 1106.92 191.621ZM1092.07 117.374C1093.44 116.008 1095.66 116.008 1097.02 117.374C1098.39 118.741 1098.39 120.957 1097.02 122.324C1095.66 123.691 1093.44 123.691 1092.07 122.324C1090.71 120.957 1090.71 118.741 1092.07 117.374ZM1092.07 147.073C1093.44 145.706 1095.66 145.706 1097.02 147.073C1098.39 148.44 1098.39 150.656 1097.02 152.023C1095.66 153.389 1093.44 153.389 1092.07 152.023C1090.71 150.656 1090.71 148.44 1092.07 147.073ZM1092.07 176.771C1093.44 175.405 1095.66 175.405 1097.02 176.771C1098.39 178.138 1098.39 180.354 1097.02 181.721C1095.66 183.088 1093.44 183.088 1092.07 181.721C1090.71 180.354 1090.71 178.138 1092.07 176.771ZM1077.22 102.525C1078.59 101.158 1080.81 101.158 1082.17 102.525C1083.54 103.892 1083.54 106.108 1082.17 107.475C1080.81 108.842 1078.59 108.842 1077.22 107.475C1075.86 106.108 1075.86 103.892 1077.22 102.525ZM1077.22 132.224C1078.59 130.857 1080.81 130.857 1082.17 132.224C1083.54 133.59 1083.54 135.807 1082.17 137.173C1080.81 138.54 1078.59 138.54 1077.22 137.173C1075.86 135.807 1075.86 133.59 1077.22 132.224ZM1077.22 161.922C1078.59 160.555 1080.81 160.555 1082.17 161.922C1083.54 163.289 1083.54 165.505 1082.17 166.872C1080.81 168.239 1078.59 168.239 1077.22 166.872C1075.86 165.505 1075.86 163.289 1077.22 161.922ZM1077.22 191.621C1078.59 190.254 1080.81 190.254 1082.17 191.621C1083.54 192.987 1083.54 195.203 1082.17 196.57C1080.81 197.937 1078.59 197.937 1077.22 196.57C1075.86 195.203 1075.86 192.987 1077.22 191.621ZM1062.37 117.374C1063.74 116.008 1065.96 116.008 1067.32 117.374C1068.69 118.741 1068.69 120.957 1067.32 122.324C1065.96 123.691 1063.74 123.691 1062.37 122.324C1061.01 120.957 1061.01 118.741 1062.37 117.374ZM1062.37 147.073C1063.74 145.706 1065.96 145.706 1067.32 147.073C1068.69 148.44 1068.69 150.656 1067.32 152.023C1065.96 153.389 1063.74 153.389 1062.37 152.023C1061.01 150.656 1061.01 148.44 1062.37 147.073ZM1062.37 176.771C1063.74 175.405 1065.96 175.405 1067.32 176.771C1068.69 178.138 1068.69 180.354 1067.32 181.721C1065.96 183.088 1063.74 183.088 1062.37 181.721C1061.01 180.354 1061.01 178.138 1062.37 176.771ZM1047.62 161.922C1048.99 160.555 1051.2 160.555 1052.57 161.922C1053.94 163.289 1053.94 165.505 1052.57 166.872C1051.2 168.239 1048.99 168.239 1047.62 166.872C1046.25 165.505 1046.25 163.289 1047.62 161.922ZM1047.62 132.224C1048.99 130.857 1051.2 130.857 1052.57 132.224C1053.94 133.59 1053.94 135.807 1052.57 137.173C1051.2 138.54 1048.99 138.54 1047.62 137.173C1046.25 135.807 1046.25 133.59 1047.62 132.224ZM1032.77 117.374C1034.14 116.008 1036.35 116.008 1037.72 117.374C1039.09 118.741 1039.09 120.957 1037.72 122.324C1036.35 123.691 1034.14 123.691 1032.77 122.324C1031.4 120.957 1031.4 118.741 1032.77 117.374ZM1032.77 147.073C1034.14 145.706 1036.35 145.706 1037.72 147.073C1039.09 148.44 1039.09 150.656 1037.72 152.023C1036.35 153.389 1034.14 153.389 1032.77 152.023C1031.4 150.656 1031.4 148.44 1032.77 147.073ZM1032.77 176.771C1034.14 175.405 1036.35 175.405 1037.72 176.771C1039.09 178.138 1039.09 180.354 1037.72 181.721C1036.35 183.088 1034.14 183.088 1032.77 181.721C1031.4 180.354 1031.4 178.138 1032.77 176.771ZM1017.92 102.525C1019.29 101.158 1021.5 101.158 1022.87 102.525C1024.24 103.892 1024.24 106.108 1022.87 107.475C1021.5 108.842 1019.29 108.842 1017.92 107.475C1016.56 106.108 1016.56 103.892 1017.92 102.525ZM1017.92 132.224C1019.29 130.857 1021.5 130.857 1022.87 132.224C1024.24 133.59 1024.24 135.807 1022.87 137.173C1021.5 138.54 1019.29 138.54 1017.92 137.173C1016.56 135.807 1016.56 133.59 1017.92 132.224ZM1017.92 161.922C1019.29 160.555 1021.5 160.555 1022.87 161.922C1024.24 163.289 1024.24 165.505 1022.87 166.872C1021.5 168.239 1019.29 168.239 1017.92 166.872C1016.56 165.505 1016.56 163.289 1017.92 161.922ZM1017.92 191.621C1019.29 190.254 1021.5 190.254 1022.87 191.621C1024.24 192.987 1024.24 195.203 1022.87 196.57C1021.5 197.937 1019.29 197.937 1017.92 196.57C1016.56 195.203 1016.56 192.987 1017.92 191.621ZM1003.07 117.374C1004.44 116.008 1006.66 116.008 1008.02 117.374C1009.39 118.741 1009.39 120.957 1008.02 122.324C1006.66 123.691 1004.44 123.691 1003.07 122.324C1001.71 120.957 1001.71 118.741 1003.07 117.374ZM1003.07 147.073C1004.44 145.706 1006.66 145.706 1008.02 147.073C1009.39 148.44 1009.39 150.656 1008.02 152.023C1006.66 153.389 1004.44 153.389 1003.07 152.023C1001.71 150.656 1001.71 148.44 1003.07 147.073ZM1003.07 176.771C1004.44 175.405 1006.66 175.405 1008.02 176.771C1009.39 178.138 1009.39 180.354 1008.02 181.721C1006.66 183.088 1004.44 183.088 1003.07 181.721C1001.71 180.354 1001.71 178.138 1003.07 176.771ZM988.224 102.525C989.59 101.158 991.807 101.158 993.173 102.525C994.54 103.892 994.54 106.108 993.173 107.475C991.807 108.842 989.59 108.842 988.224 107.475C986.857 106.108 986.857 103.892 988.224 102.525ZM988.224 132.224C989.59 130.857 991.807 130.857 993.173 132.224C994.54 133.59 994.54 135.807 993.173 137.173C991.807 138.54 989.59 138.54 988.224 137.173C986.857 135.807 986.857 133.59 988.224 132.224ZM988.224 161.922C989.59 160.555 991.807 160.555 993.173 161.922C994.54 163.289 994.54 165.505 993.173 166.872C991.807 168.239 989.59 168.239 988.224 166.872C986.857 165.505 986.857 163.289 988.224 161.922ZM988.224 191.621C989.59 190.254 991.807 190.254 993.173 191.621C994.54 192.987 994.54 195.203 993.173 196.57C991.807 197.937 989.59 197.937 988.224 196.57C986.857 195.203 986.857 192.987 988.224 191.621ZM973.374 117.374C974.741 116.008 976.957 116.008 978.324 117.374C979.691 118.741 979.691 120.957 978.324 122.324C976.957 123.691 974.741 123.691 973.374 122.324C972.008 120.957 972.008 118.741 973.374 117.374ZM973.374 147.073C974.741 145.706 976.957 145.706 978.324 147.073C979.691 148.44 979.691 150.656 978.324 152.023C976.957 153.389 974.741 153.389 973.374 152.023C972.008 150.656 972.008 148.44 973.374 147.073ZM973.374 176.771C974.741 175.405 976.957 175.405 978.324 176.771C979.691 178.138 979.691 180.354 978.324 181.721C976.957 183.088 974.741 183.088 973.374 181.721C972.008 180.354 972.008 178.138 973.374 176.771ZM958.525 161.922C959.892 160.555 962.108 160.555 963.475 161.922C964.842 163.289 964.842 165.505 963.475 166.872C962.108 168.239 959.892 168.239 958.525 166.872C957.158 165.505 957.158 163.289 958.525 161.922ZM958.525 132.224C959.892 130.857 962.108 130.857 963.475 132.224C964.842 133.59 964.842 135.807 963.475 137.173C962.108 138.54 959.892 138.54 958.525 137.173C957.158 135.807 957.158 133.59 958.525 132.224Z" fill="#D6E1EF"/>
<path d="M707.471 836.031C708.836 837.397 708.836 839.611 707.471 840.976C706.105 842.341 703.891 842.341 702.526 840.976C701.16 839.611 701.16 837.397 702.526 836.031C703.891 834.666 706.105 834.666 707.471 836.031ZM692.637 821.197C694.002 822.563 694.002 824.777 692.637 826.142C691.271 827.507 689.057 827.507 687.692 826.142C686.327 824.777 686.327 822.563 687.692 821.197C689.057 819.832 691.271 819.832 692.637 821.197ZM677.803 806.363C679.168 807.729 679.168 809.943 677.803 811.308C676.437 812.673 674.223 812.673 672.858 811.308C671.493 809.943 671.493 807.729 672.858 806.363C674.223 804.998 676.437 804.998 677.803 806.363ZM662.969 791.529C664.334 792.895 664.334 795.109 662.969 796.474C661.603 797.84 659.389 797.84 658.024 796.474C656.659 795.109 656.659 792.895 658.024 791.529C659.389 790.164 661.603 790.164 662.969 791.529ZM737.138 836.031C738.504 837.397 738.504 839.611 737.138 840.976C735.773 842.341 733.559 842.341 732.194 840.976C730.828 839.611 730.828 837.397 732.194 836.031C733.559 834.666 735.773 834.666 737.138 836.031ZM722.304 821.197C723.67 822.563 723.67 824.777 722.304 826.142C720.939 827.507 718.725 827.507 717.36 826.142C715.994 824.777 715.994 822.563 717.36 821.197C718.725 819.832 720.939 819.832 722.304 821.197ZM707.471 806.363C708.836 807.729 708.836 809.943 707.471 811.308C706.105 812.673 703.891 812.673 702.526 811.308C701.16 809.943 701.16 807.729 702.526 806.363C703.891 804.998 706.105 804.998 707.471 806.363ZM692.637 791.529C694.002 792.895 694.002 795.109 692.637 796.474C691.271 797.84 689.057 797.84 687.692 796.474C686.327 795.109 686.327 792.895 687.692 791.529C689.057 790.164 691.271 790.164 692.637 791.529ZM677.803 776.696C679.168 778.061 679.168 780.275 677.803 781.64C676.437 783.006 674.223 783.006 672.858 781.64C671.493 780.275 671.493 778.061 672.858 776.696C674.223 775.33 676.437 775.33 677.803 776.696ZM662.969 761.862C664.334 763.227 664.334 765.441 662.969 766.806C661.603 768.172 659.389 768.172 658.024 766.806C656.659 765.441 656.659 763.227 658.024 761.862C659.389 760.496 661.603 760.496 662.969 761.862ZM766.806 836.031C768.172 837.397 768.172 839.611 766.806 840.976C765.441 842.341 763.227 842.341 761.862 840.976C760.496 839.611 760.496 837.397 761.862 836.031C763.227 834.666 765.441 834.666 766.806 836.031ZM751.972 821.197C753.338 822.563 753.338 824.777 751.972 826.142C750.607 827.507 748.393 827.507 747.028 826.142C745.662 824.777 745.662 822.563 747.028 821.197C748.393 819.832 750.607 819.832 751.972 821.197ZM737.138 806.363C738.504 807.729 738.504 809.943 737.138 811.308C735.773 812.673 733.559 812.673 732.194 811.308C730.828 809.943 730.828 807.729 732.194 806.363C733.559 804.998 735.773 804.998 737.138 806.363ZM722.304 791.529C723.67 792.895 723.67 795.109 722.304 796.474C720.939 797.84 718.725 797.84 717.36 796.474C715.994 795.109 715.994 792.895 717.36 791.529C718.725 790.164 720.939 790.164 722.304 791.529ZM707.471 776.696C708.836 778.061 708.836 780.275 707.471 781.64C706.105 783.006 703.891 783.006 702.526 781.64C701.16 780.275 701.16 778.061 702.526 776.696C703.891 775.33 706.105 775.33 707.471 776.696ZM692.637 761.862C694.002 763.227 694.002 765.441 692.637 766.806C691.271 768.172 689.057 768.172 687.692 766.806C686.327 765.441 686.327 763.227 687.692 761.862C689.057 760.496 691.271 760.496 692.637 761.862ZM677.803 747.028C679.168 748.393 679.168 750.607 677.803 751.972C676.437 753.338 674.223 753.338 672.858 751.972C671.493 750.607 671.493 748.393 672.858 747.028C674.223 745.662 676.437 745.662 677.803 747.028ZM662.969 732.194C664.334 733.559 664.334 735.773 662.969 737.138C661.603 738.504 659.389 738.504 658.024 737.138C656.659 735.773 656.659 733.559 658.024 732.194C659.389 730.828 661.603 730.828 662.969 732.194ZM796.474 836.031C797.84 837.397 797.84 839.611 796.474 840.976C795.109 842.341 792.895 842.341 791.529 840.976C790.164 839.611 790.164 837.397 791.529 836.031C792.895 834.666 795.109 834.666 796.474 836.031ZM781.64 821.197C783.006 822.563 783.006 824.777 781.64 826.142C780.275 827.507 778.061 827.507 776.696 826.142C775.33 824.777 775.33 822.563 776.696 821.197C778.061 819.832 780.275 819.832 781.64 821.197ZM766.806 806.363C768.172 807.729 768.172 809.943 766.806 811.308C765.441 812.673 763.227 812.673 761.862 811.308C760.496 809.943 760.496 807.729 761.862 806.363C763.227 804.998 765.441 804.998 766.806 806.363ZM751.972 791.529C753.338 792.895 753.338 795.109 751.972 796.474C750.607 797.84 748.393 797.84 747.028 796.474C745.662 795.109 745.662 792.895 747.028 791.529C748.393 790.164 750.607 790.164 751.972 791.529ZM737.138 776.696C738.504 778.061 738.504 780.275 737.138 781.64C735.773 783.006 733.559 783.006 732.194 781.64C730.828 780.275 730.828 778.061 732.194 776.696C733.559 775.33 735.773 775.33 737.138 776.696ZM722.304 761.862C723.67 763.227 723.67 765.441 722.304 766.806C720.939 768.172 718.725 768.172 717.36 766.806C715.994 765.441 715.994 763.227 717.36 761.862C718.725 760.496 720.939 760.496 722.304 761.862ZM707.471 747.028C708.836 748.393 708.836 750.607 707.471 751.972C706.105 753.338 703.891 753.338 702.526 751.972C701.16 750.607 701.16 748.393 702.526 747.028C703.891 745.662 706.105 745.662 707.471 747.028ZM692.637 732.194C694.002 733.559 694.002 735.773 692.637 737.138C691.271 738.504 689.057 738.504 687.692 737.138C686.327 735.773 686.327 733.559 687.692 732.194C689.057 730.828 691.271 730.828 692.637 732.194ZM677.803 717.36C679.168 718.725 679.168 720.939 677.803 722.304C676.437 723.67 674.223 723.67 672.858 722.304C671.493 720.939 671.493 718.725 672.858 717.36C674.223 715.994 676.437 715.994 677.803 717.36ZM662.969 702.526C664.334 703.891 664.334 706.105 662.969 707.471C661.603 708.836 659.389 708.836 658.024 707.471C656.659 706.105 656.659 703.891 658.024 702.526C659.389 701.16 661.603 701.16 662.969 702.526ZM811.308 821.197C812.673 822.563 812.673 824.777 811.308 826.142C809.943 827.507 807.729 827.507 806.363 826.142C804.998 824.777 804.998 822.563 806.363 821.197C807.729 819.832 809.943 819.832 811.308 821.197ZM796.474 806.363C797.84 807.729 797.84 809.943 796.474 811.308C795.109 812.673 792.895 812.673 791.529 811.308C790.164 809.943 790.164 807.729 791.529 806.363C792.895 804.998 795.109 804.998 796.474 806.363ZM781.64 791.529C783.006 792.895 783.006 795.109 781.64 796.474C780.275 797.84 778.061 797.84 776.696 796.474C775.33 795.109 775.33 792.895 776.696 791.529C778.061 790.164 780.275 790.164 781.64 791.529ZM766.806 776.696C768.172 778.061 768.172 780.275 766.806 781.64C765.441 783.006 763.227 783.006 761.862 781.64C760.496 780.275 760.496 778.061 761.862 776.696C763.227 775.33 765.441 775.33 766.806 776.696ZM722.304 732.194C723.67 733.559 723.67 735.773 722.304 737.138C720.939 738.504 718.725 738.504 717.36 737.138C715.994 735.773 715.994 733.559 717.36 732.194C718.725 730.828 720.939 730.828 722.304 732.194ZM707.471 717.36C708.836 718.725 708.836 720.939 707.471 722.304C706.105 723.67 703.891 723.67 702.526 722.304C701.16 720.939 701.16 718.725 702.526 717.36C703.891 715.994 706.105 715.994 707.471 717.36ZM692.637 702.526C694.002 703.891 694.002 706.105 692.637 707.471C691.271 708.836 689.057 708.836 687.692 707.471C686.327 706.105 686.327 703.891 687.692 702.526C689.057 701.16 691.271 701.16 692.637 702.526ZM677.803 687.692C679.168 689.057 679.168 691.271 677.803 692.637C676.437 694.002 674.223 694.002 672.858 692.637C671.493 691.271 671.493 689.057 672.858 687.692C674.223 686.327 676.437 686.327 677.803 687.692ZM826.142 806.363C827.507 807.729 827.507 809.943 826.142 811.308C824.777 812.673 822.563 812.673 821.197 811.308C819.832 809.943 819.832 807.729 821.197 806.363C822.563 804.998 824.777 804.998 826.142 806.363ZM811.308 791.529C812.673 792.895 812.673 795.109 811.308 796.474C809.943 797.84 807.729 797.84 806.363 796.474C804.998 795.109 804.998 792.895 806.363 791.529C807.729 790.164 809.943 790.164 811.308 791.529ZM796.474 776.696C797.84 778.061 797.84 780.275 796.474 781.64C795.109 783.006 792.895 783.006 791.529 781.64C790.164 780.275 790.164 778.061 791.529 776.696C792.895 775.33 795.109 775.33 796.474 776.696ZM781.64 761.862C783.006 763.227 783.006 765.441 781.64 766.806C780.275 768.172 778.061 768.172 776.696 766.806C775.33 765.441 775.33 763.227 776.696 761.862C778.061 760.496 780.275 760.496 781.64 761.862ZM737.138 717.36C738.504 718.725 738.504 720.939 737.138 722.304C735.773 723.67 733.559 723.67 732.194 722.304C730.828 720.939 730.828 718.725 732.194 717.36C733.559 715.994 735.773 715.994 737.138 717.36ZM722.304 702.526C723.67 703.891 723.67 706.105 722.304 707.471C720.939 708.836 718.725 708.836 717.36 707.471C715.994 706.105 715.994 703.891 717.36 702.526C718.725 701.16 720.939 701.16 722.304 702.526ZM707.471 687.692C708.836 689.057 708.836 691.271 707.471 692.637C706.105 694.002 703.891 694.002 702.526 692.637C701.16 691.271 701.16 689.057 702.526 687.692C703.891 686.327 706.105 686.327 707.471 687.692ZM692.637 672.858C694.002 674.223 694.002 676.437 692.637 677.803C691.271 679.168 689.057 679.168 687.692 677.803C686.327 676.437 686.327 674.223 687.692 672.858C689.057 671.493 691.271 671.493 692.637 672.858ZM840.976 791.529C842.341 792.895 842.341 795.109 840.976 796.474C839.611 797.84 837.397 797.84 836.031 796.474C834.666 795.109 834.666 792.895 836.031 791.529C837.397 790.164 839.611 790.164 840.976 791.529ZM826.142 776.696C827.507 778.061 827.507 780.275 826.142 781.64C824.777 783.006 822.563 783.006 821.197 781.64C819.832 780.275 819.832 778.061 821.197 776.696C822.563 775.33 824.777 775.33 826.142 776.696ZM811.308 761.862C812.673 763.227 812.673 765.441 811.308 766.806C809.943 768.172 807.729 768.172 806.363 766.806C804.998 765.441 804.998 763.227 806.363 761.862C807.729 760.496 809.943 760.496 811.308 761.862ZM796.474 747.028C797.84 748.393 797.84 750.607 796.474 751.972C795.109 753.338 792.895 753.338 791.529 751.972C790.164 750.607 790.164 748.393 791.529 747.028C792.895 745.662 795.109 745.662 796.474 747.028ZM781.64 732.194C783.006 733.559 783.006 735.773 781.64 737.138C780.275 738.504 778.061 738.504 776.696 737.138C775.33 735.773 775.33 733.559 776.696 732.194C778.061 730.828 780.275 730.828 781.64 732.194ZM766.806 717.36C768.172 718.725 768.172 720.939 766.806 722.304C765.441 723.67 763.227 723.67 761.862 722.304C760.496 720.939 760.496 718.725 761.862 717.36C763.227 715.994 765.441 715.994 766.806 717.36ZM751.972 702.526C753.338 703.891 753.338 706.105 751.972 707.471C750.607 708.836 748.393 708.836 747.028 707.471C745.662 706.105 745.662 703.891 747.028 702.526C748.393 701.16 750.607 701.16 751.972 702.526ZM737.138 687.692C738.504 689.057 738.504 691.271 737.138 692.637C735.773 694.002 733.559 694.002 732.194 692.637C730.828 691.271 730.828 689.057 732.194 687.692C733.559 686.327 735.773 686.327 737.138 687.692ZM722.304 672.858C723.67 674.223 723.67 676.437 722.304 677.803C720.939 679.168 718.725 679.168 717.36 677.803C715.994 676.437 715.994 674.223 717.36 672.858C718.725 671.493 720.939 671.493 722.304 672.858ZM707.471 658.024C708.836 659.389 708.836 661.603 707.471 662.969C706.105 664.334 703.891 664.334 702.526 662.969C701.16 661.603 701.16 659.389 702.526 658.024C703.891 656.659 706.105 656.659 707.471 658.024ZM840.976 761.862C842.341 763.227 842.341 765.441 840.976 766.806C839.611 768.172 837.397 768.172 836.031 766.806C834.666 765.441 834.666 763.227 836.031 761.862C837.397 760.496 839.611 760.496 840.976 761.862ZM826.142 747.028C827.507 748.393 827.507 750.607 826.142 751.972C824.777 753.338 822.563 753.338 821.197 751.972C819.832 750.607 819.832 748.393 821.197 747.028C822.563 745.662 824.777 745.662 826.142 747.028ZM811.308 732.194C812.673 733.559 812.673 735.773 811.308 737.138C809.943 738.504 807.729 738.504 806.363 737.138C804.998 735.773 804.998 733.559 806.363 732.194C807.729 730.828 809.943 730.828 811.308 732.194ZM796.474 717.36C797.84 718.725 797.84 720.939 796.474 722.304C795.109 723.67 792.895 723.67 791.529 722.304C790.164 720.939 790.164 718.725 791.529 717.36C792.895 715.994 795.109 715.994 796.474 717.36ZM781.64 702.526C783.006 703.891 783.006 706.105 781.64 707.471C780.275 708.836 778.061 708.836 776.696 707.471C775.33 706.105 775.33 703.891 776.696 702.526C778.061 701.16 780.275 701.16 781.64 702.526ZM766.806 687.692C768.172 689.057 768.172 691.271 766.806 692.637C765.441 694.002 763.227 694.002 761.862 692.637C760.496 691.271 760.496 689.057 761.862 687.692C763.227 686.327 765.441 686.327 766.806 687.692ZM751.972 672.858C753.338 674.223 753.338 676.437 751.972 677.803C750.607 679.168 748.393 679.168 747.028 677.803C745.662 676.437 745.662 674.223 747.028 672.858C748.393 671.493 750.607 671.493 751.972 672.858ZM737.138 658.024C738.504 659.389 738.504 661.603 737.138 662.969C735.773 664.334 733.559 664.334 732.194 662.969C730.828 661.603 730.828 659.389 732.194 658.024C733.559 656.659 735.773 656.659 737.138 658.024ZM840.976 732.194C842.341 733.559 842.341 735.773 840.976 737.138C839.611 738.504 837.397 738.504 836.031 737.138C834.666 735.773 834.666 733.559 836.031 732.194C837.397 730.828 839.611 730.828 840.976 732.194ZM826.142 717.36C827.507 718.725 827.507 720.939 826.142 722.304C824.777 723.67 822.563 723.67 821.197 722.304C819.832 720.939 819.832 718.725 821.197 717.36C822.563 715.994 824.777 715.994 826.142 717.36ZM811.308 702.526C812.673 703.891 812.673 706.105 811.308 707.471C809.943 708.836 807.729 708.836 806.363 707.471C804.998 706.105 804.998 703.891 806.363 702.526C807.729 701.16 809.943 701.16 811.308 702.526ZM796.474 687.692C797.84 689.057 797.84 691.271 796.474 692.637C795.109 694.002 792.895 694.002 791.529 692.637C790.164 691.271 790.164 689.057 791.529 687.692C792.895 686.327 795.109 686.327 796.474 687.692ZM781.64 672.858C783.006 674.223 783.006 676.437 781.64 677.803C780.275 679.168 778.061 679.168 776.696 677.803C775.33 676.437 775.33 674.223 776.696 672.858C778.061 671.493 780.275 671.493 781.64 672.858ZM766.806 658.024C768.172 659.389 768.172 661.603 766.806 662.969C765.441 664.334 763.227 664.334 761.862 662.969C760.496 661.603 760.496 659.389 761.862 658.024C763.227 656.659 765.441 656.659 766.806 658.024ZM840.976 702.526C842.341 703.891 842.341 706.105 840.976 707.471C839.611 708.836 837.397 708.836 836.031 707.471C834.666 706.105 834.666 703.891 836.031 702.526C837.397 701.16 839.611 701.16 840.976 702.526ZM826.142 687.692C827.507 689.057 827.507 691.271 826.142 692.637C824.777 694.002 822.563 694.002 821.197 692.637C819.832 691.271 819.832 689.057 821.197 687.692C822.563 686.327 824.777 686.327 826.142 687.692ZM811.308 672.858C812.673 674.223 812.673 676.437 811.308 677.803C809.943 679.168 807.729 679.168 806.363 677.803C804.998 676.437 804.998 674.223 806.363 672.858C807.729 671.493 809.943 671.493 811.308 672.858ZM796.474 658.024C797.84 659.389 797.84 661.603 796.474 662.969C795.109 664.334 792.895 664.334 791.529 662.969C790.164 661.603 790.164 659.389 791.529 658.024C792.895 656.659 795.109 656.659 796.474 658.024Z" fill="#D6E1EF"/>
</svg>
